<svg id="Layer_1" data-name="Layer 1" xmlns="http://www.w3.org/2000/svg" width="60" height="50" viewBox="0 0 60 50"><title>arrow_pixel</title><rect x="3.3" y="22" width="5.9" height="5.94"/><rect x="9.2" y="22" width="5.9" height="5.94"/><rect x="15.1" y="22" width="5.9" height="5.94"/><rect x="21.1" y="22" width="5.9" height="5.94"/><rect x="27" y="22" width="5.9" height="5.94"/><rect x="33" y="22" width="5.9" height="5.94"/><rect x="38.9" y="22" width="5.9" height="5.94"/><rect x="44.9" y="22" width="5.9" height="5.94"/><rect x="33" y="4.2" width="5.9" height="5.94"/><rect x="33" y="39.9" width="5.9" height="5.94"/><rect x="38.9" y="33.9" width="5.9" height="5.94"/><rect x="38.9" y="10.1" width="5.9" height="5.95"/><rect x="44.9" y="16.1" width="5.9" height="5.94"/><rect x="44.9" y="28" width="5.9" height="5.94"/><rect x="50.8" y="22" width="5.9" height="5.94"/></svg>
