<svg id="Layer_1" data-name="Layer 1" xmlns="http://www.w3.org/2000/svg" width="100" height="80" viewBox="0 0 100 80"><defs><style>.cls-1{fill:#f2798f;}.cls-2{fill:#592e56;}</style></defs><title>hjerte_ny</title><rect class="cls-1" x="79.5" y="27.4" width="8.4" height="8.42"/><rect class="cls-1" x="79.5" y="19" width="8.4" height="8.42"/><rect class="cls-1" x="71" y="35.8" width="8.4" height="8.42"/><rect class="cls-1" x="71" y="27.4" width="8.4" height="8.42"/><rect class="cls-1" x="71" y="19" width="8.4" height="8.42"/><rect class="cls-1" x="71" y="10.5" width="8.4" height="8.42"/><rect class="cls-1" x="62.6" y="44.2" width="8.4" height="8.42"/><rect class="cls-1" x="62.6" y="35.8" width="8.4" height="8.42"/><rect class="cls-1" x="62.6" y="27.4" width="8.4" height="8.42"/><rect class="cls-1" x="62.6" y="19" width="8.4" height="8.42"/><rect class="cls-1" x="62.6" y="10.5" width="8.4" height="8.42"/><rect class="cls-1" x="54.2" y="52.6" width="8.4" height="8.42"/><rect class="cls-1" x="54.2" y="44.2" width="8.4" height="8.42"/><rect class="cls-1" x="54.2" y="35.8" width="8.4" height="8.42"/><rect class="cls-1" x="54.2" y="27.4" width="8.4" height="8.42"/><rect class="cls-1" x="54.2" y="19" width="8.4" height="8.42"/><rect class="cls-1" x="45.8" y="61.1" width="8.4" height="8.42"/><rect class="cls-1" x="45.8" y="52.6" width="8.4" height="8.42"/><rect class="cls-1" x="45.8" y="44.2" width="8.4" height="8.42"/><rect class="cls-1" x="45.8" y="35.8" width="8.4" height="8.42"/><rect class="cls-1" x="45.8" y="27.4" width="8.4" height="8.42"/><rect class="cls-1" x="37.4" y="52.6" width="8.4" height="8.42"/><rect class="cls-1" x="37.4" y="44.2" width="8.4" height="8.42"/><rect class="cls-1" x="37.4" y="35.8" width="8.4" height="8.42"/><rect class="cls-1" x="37.4" y="27.4" width="8.4" height="8.42"/><rect class="cls-1" x="37.4" y="19" width="8.4" height="8.42"/><rect class="cls-1" x="29" y="44.2" width="8.4" height="8.42"/><rect class="cls-1" x="29" y="35.8" width="8.4" height="8.42"/><rect class="cls-1" x="29" y="27.4" width="8.4" height="8.42"/><rect class="cls-1" x="29" y="19" width="8.4" height="8.42"/><rect class="cls-1" x="29" y="10.5" width="8.4" height="8.42"/><rect class="cls-1" x="20.5" y="35.8" width="8.4" height="8.42"/><rect class="cls-1" x="20.5" y="27.4" width="8.4" height="8.42"/><rect class="cls-1" x="20.5" y="19" width="8.4" height="8.42"/><rect class="cls-1" x="20.5" y="10.5" width="8.4" height="8.42"/><rect class="cls-1" x="12.1" y="27.4" width="8.4" height="8.42"/><rect class="cls-1" x="12.1" y="19" width="8.4" height="8.42"/><rect class="cls-2" x="87.9" y="27.4" width="8.4" height="8.42"/><rect class="cls-2" x="87.9" y="19" width="8.4" height="8.42"/><rect class="cls-2" x="79.5" y="35.8" width="8.4" height="8.42"/><rect class="cls-2" x="79.5" y="10.5" width="8.4" height="8.42"/><rect class="cls-2" x="71" y="44.2" width="8.4" height="8.42"/><rect class="cls-2" x="71" y="2.1" width="8.4" height="8.42"/><rect class="cls-2" x="62.6" y="52.6" width="8.4" height="8.42"/><rect class="cls-2" x="62.6" y="2.1" width="8.4" height="8.42"/><rect class="cls-2" x="54.2" y="61.1" width="8.4" height="8.42"/><rect class="cls-2" x="54.2" y="10.5" width="8.4" height="8.42"/><rect class="cls-2" x="45.8" y="69.5" width="8.4" height="8.42"/><rect class="cls-2" x="45.8" y="19" width="8.4" height="8.42"/><rect class="cls-2" x="37.4" y="61.1" width="8.4" height="8.42"/><rect class="cls-2" x="37.4" y="10.5" width="8.4" height="8.42"/><rect class="cls-2" x="29" y="52.6" width="8.4" height="8.42"/><rect class="cls-2" x="29" y="2.1" width="8.4" height="8.42"/><rect class="cls-2" x="20.5" y="44.2" width="8.4" height="8.42"/><rect class="cls-2" x="20.5" y="2.1" width="8.4" height="8.42"/><rect class="cls-2" x="12.1" y="35.8" width="8.4" height="8.42"/><rect class="cls-2" x="12.1" y="10.5" width="8.4" height="8.42"/><rect class="cls-2" x="3.7" y="27.4" width="8.4" height="8.42"/><rect class="cls-2" x="3.7" y="19" width="8.4" height="8.42"/></svg>
