<svg id="Layer_1" data-name="Layer 1" xmlns="http://www.w3.org/2000/svg" width="110" height="110" viewBox="0 0 110 110"><defs><style>.cls-1{fill:#f2cece;}.cls-2{fill:#f2798f;}.cls-3{fill:#592e56;}</style></defs><title>knap1</title><rect class="cls-1" x="75.8" y="34.2" width="5.9" height="5.94"/><rect class="cls-1" x="69.9" y="63.9" width="5.9" height="5.94"/><rect class="cls-1" x="69.9" y="58" width="5.9" height="5.94"/><rect class="cls-1" x="69.9" y="52" width="5.9" height="5.94"/><rect class="cls-1" x="69.9" y="46.1" width="5.9" height="5.95"/><rect class="cls-1" x="69.9" y="40.1" width="5.9" height="5.94"/><rect class="cls-1" x="69.9" y="34.2" width="5.9" height="5.94"/><rect class="cls-1" x="69.9" y="28.3" width="5.9" height="5.94"/><rect class="cls-1" x="63.9" y="75.8" width="5.9" height="5.94"/><rect class="cls-1" x="63.9" y="69.9" width="5.9" height="5.94"/><rect class="cls-1" x="63.9" y="63.9" width="5.9" height="5.94"/><rect class="cls-1" x="63.9" y="58" width="5.9" height="5.94"/><rect class="cls-1" x="63.9" y="52" width="5.9" height="5.94"/><rect class="cls-1" x="63.9" y="46.1" width="5.9" height="5.95"/><rect class="cls-1" x="63.9" y="40.1" width="5.9" height="5.94"/><rect class="cls-1" x="63.9" y="34.2" width="5.9" height="5.94"/><rect class="cls-1" x="63.9" y="28.3" width="5.9" height="5.94"/><rect class="cls-1" x="58" y="75.8" width="5.9" height="5.94"/><rect class="cls-1" x="58" y="69.9" width="5.9" height="5.94"/><rect class="cls-1" x="58" y="63.9" width="5.9" height="5.94"/><rect class="cls-1" x="58" y="58" width="5.9" height="5.94"/><rect class="cls-1" x="58" y="52" width="5.9" height="5.94"/><rect class="cls-1" x="58" y="46.1" width="5.9" height="5.95"/><rect class="cls-1" x="58" y="40.1" width="5.9" height="5.94"/><rect class="cls-1" x="58" y="34.2" width="5.9" height="5.94"/><rect class="cls-1" x="58" y="28.3" width="5.9" height="5.94"/><rect class="cls-1" x="52" y="75.8" width="5.9" height="5.94"/><rect class="cls-1" x="52" y="69.9" width="5.9" height="5.94"/><rect class="cls-1" x="52" y="63.9" width="5.9" height="5.94"/><rect class="cls-1" x="52" y="58" width="5.9" height="5.94"/><rect class="cls-1" x="52" y="52" width="5.9" height="5.94"/><rect class="cls-1" x="52" y="46.1" width="5.9" height="5.95"/><rect class="cls-1" x="52" y="40.1" width="5.9" height="5.94"/><rect class="cls-1" x="52" y="34.2" width="5.9" height="5.94"/><rect class="cls-1" x="52" y="28.3" width="5.9" height="5.94"/><rect class="cls-1" x="81.7" y="40.1" width="5.9" height="5.94"/><rect class="cls-1" x="81.7" y="34.2" width="5.9" height="5.94"/><rect class="cls-1" x="81.7" y="28.3" width="5.9" height="5.94"/><rect class="cls-1" x="75.8" y="28.3" width="5.9" height="5.94"/><rect class="cls-1" x="75.8" y="22.3" width="5.9" height="5.94"/><rect class="cls-1" x="69.9" y="22.3" width="5.9" height="5.94"/><rect class="cls-1" x="63.9" y="22.3" width="5.9" height="5.94"/><rect class="cls-1" x="58" y="22.3" width="5.9" height="5.94"/><rect class="cls-1" x="52" y="22.3" width="5.9" height="5.94"/><rect class="cls-1" x="46.1" y="22.3" width="5.9" height="5.94"/><rect class="cls-1" x="40.1" y="22.3" width="5.9" height="5.94"/><rect class="cls-1" x="87.7" y="81.7" width="5.9" height="5.94"/><rect class="cls-1" x="87.7" y="75.8" width="5.9" height="5.94"/><rect class="cls-1" x="87.7" y="69.9" width="5.9" height="5.94"/><rect class="cls-1" x="87.7" y="63.9" width="5.9" height="5.94"/><rect class="cls-1" x="87.7" y="58" width="5.9" height="5.94"/><rect class="cls-1" x="87.7" y="52" width="5.9" height="5.94"/><rect class="cls-1" x="81.7" y="87.7" width="5.9" height="5.94"/><rect class="cls-1" x="81.7" y="81.7" width="5.9" height="5.94"/><rect class="cls-1" x="81.7" y="75.8" width="5.9" height="5.94"/><rect class="cls-1" x="75.8" y="87.7" width="5.9" height="5.94"/><rect class="cls-1" x="75.8" y="81.7" width="5.9" height="5.94"/><rect class="cls-1" x="75.8" y="75.8" width="5.9" height="5.94"/><rect class="cls-1" x="75.8" y="69.9" width="5.9" height="5.94"/><rect class="cls-1" x="75.8" y="63.9" width="5.9" height="5.94"/><rect class="cls-1" x="75.8" y="58" width="5.9" height="5.94"/><rect class="cls-1" x="75.8" y="52" width="5.9" height="5.94"/><rect class="cls-1" x="75.8" y="46.1" width="5.9" height="5.95"/><rect class="cls-1" x="75.8" y="40.1" width="5.9" height="5.94"/><rect class="cls-1" x="69.9" y="87.7" width="5.9" height="5.94"/><rect class="cls-1" x="69.9" y="81.7" width="5.9" height="5.94"/><rect class="cls-1" x="69.9" y="75.8" width="5.9" height="5.94"/><rect class="cls-1" x="69.9" y="69.9" width="5.9" height="5.94"/><rect class="cls-1" x="63.9" y="87.7" width="5.9" height="5.94"/><rect class="cls-1" x="63.9" y="81.7" width="5.9" height="5.94"/><rect class="cls-1" x="58" y="87.7" width="5.9" height="5.94"/><rect class="cls-1" x="58" y="81.7" width="5.9" height="5.94"/><rect class="cls-1" x="52" y="87.7" width="5.9" height="5.94"/><rect class="cls-1" x="52" y="81.7" width="5.9" height="5.94"/><rect class="cls-1" x="46.1" y="87.7" width="5.9" height="5.94"/><rect class="cls-1" x="46.1" y="81.7" width="5.9" height="5.94"/><rect class="cls-1" x="40.1" y="87.7" width="5.9" height="5.94"/><rect class="cls-1" x="40.1" y="81.7" width="5.9" height="5.94"/><rect class="cls-1" x="34.2" y="87.7" width="5.9" height="5.94"/><rect class="cls-1" x="28.3" y="87.7" width="5.9" height="5.94"/><rect class="cls-1" x="22.3" y="87.7" width="5.9" height="5.94"/><rect class="cls-1" x="22.3" y="75.8" width="5.9" height="5.94"/><rect class="cls-1" x="87.7" y="46.1" width="5.9" height="5.95"/><rect class="cls-1" x="87.7" y="40.1" width="5.9" height="5.94"/><rect class="cls-1" x="87.7" y="34.2" width="5.9" height="5.94"/><rect class="cls-1" x="87.7" y="28.3" width="5.9" height="5.94"/><rect class="cls-1" x="87.7" y="22.3" width="5.9" height="5.94"/><rect class="cls-1" x="81.7" y="69.9" width="5.9" height="5.94"/><rect class="cls-1" x="81.7" y="63.9" width="5.9" height="5.94"/><rect class="cls-1" x="81.7" y="58" width="5.9" height="5.94"/><rect class="cls-1" x="81.7" y="52" width="5.9" height="5.94"/><rect class="cls-1" x="81.7" y="46.1" width="5.9" height="5.95"/><rect class="cls-1" x="81.7" y="22.3" width="5.9" height="5.94"/><rect class="cls-1" x="81.7" y="16.4" width="5.9" height="5.94"/><rect class="cls-1" x="75.8" y="16.4" width="5.9" height="5.94"/><rect class="cls-1" x="69.9" y="16.4" width="5.9" height="5.94"/><rect class="cls-1" x="63.9" y="16.4" width="5.9" height="5.94"/><rect class="cls-1" x="58" y="16.4" width="5.9" height="5.94"/><rect class="cls-1" x="52" y="16.4" width="5.9" height="5.94"/><rect class="cls-1" x="46.1" y="16.4" width="5.9" height="5.94"/><rect class="cls-1" x="40.1" y="16.4" width="5.9" height="5.94"/><rect class="cls-1" x="34.2" y="16.4" width="5.9" height="5.94"/><rect class="cls-1" x="28.3" y="16.4" width="5.9" height="5.94"/><rect class="cls-1" x="34.2" y="81.7" width="5.9" height="5.94"/><rect class="cls-1" x="34.2" y="75.8" width="5.9" height="5.94"/><rect class="cls-1" x="28.3" y="81.7" width="5.9" height="5.94"/><rect class="cls-1" x="28.3" y="75.8" width="5.9" height="5.94"/><rect class="cls-1" x="22.3" y="81.7" width="5.9" height="5.94"/><rect class="cls-1" x="16.4" y="81.7" width="5.9" height="5.94"/><rect class="cls-1" x="16.4" y="75.8" width="5.9" height="5.94"/><rect class="cls-1" x="16.4" y="69.9" width="5.9" height="5.94"/><rect class="cls-1" x="16.4" y="63.9" width="5.9" height="5.94"/><rect class="cls-1" x="16.4" y="58" width="5.9" height="5.94"/><rect class="cls-1" x="16.4" y="52" width="5.9" height="5.94"/><rect class="cls-1" x="16.4" y="46.1" width="5.9" height="5.95"/><rect class="cls-1" x="16.4" y="22.3" width="5.9" height="5.94"/><rect class="cls-1" x="46.1" y="75.8" width="5.9" height="5.94"/><rect class="cls-1" x="46.1" y="69.9" width="5.9" height="5.94"/><rect class="cls-1" x="46.1" y="63.9" width="5.9" height="5.94"/><rect class="cls-1" x="46.1" y="40.1" width="5.9" height="5.94"/><rect class="cls-1" x="46.1" y="34.2" width="5.9" height="5.94"/><rect class="cls-1" x="46.1" y="28.3" width="5.9" height="5.94"/><rect class="cls-1" x="22.3" y="69.9" width="5.9" height="5.94"/><rect class="cls-1" x="22.3" y="63.9" width="5.9" height="5.94"/><rect class="cls-1" x="22.3" y="58" width="5.9" height="5.94"/><rect class="cls-1" x="22.3" y="52" width="5.9" height="5.94"/><rect class="cls-1" x="16.4" y="40.1" width="5.9" height="5.94"/><rect class="cls-1" x="46.1" y="58" width="5.9" height="5.94"/><rect class="cls-1" x="46.1" y="52" width="5.9" height="5.94"/><rect class="cls-1" x="46.1" y="46.1" width="5.9" height="5.95"/><rect class="cls-1" x="40.1" y="75.8" width="5.9" height="5.94"/><rect class="cls-1" x="40.1" y="69.9" width="5.9" height="5.94"/><rect class="cls-1" x="40.1" y="28.3" width="5.9" height="5.94"/><rect class="cls-1" x="34.2" y="22.3" width="5.9" height="5.94"/><rect class="cls-1" x="28.3" y="22.3" width="5.9" height="5.94"/><rect class="cls-1" x="16.4" y="34.2" width="5.9" height="5.94"/><rect class="cls-1" x="16.4" y="28.3" width="5.9" height="5.94"/><rect class="cls-1" x="40.1" y="63.9" width="5.9" height="5.94"/><rect class="cls-1" x="40.1" y="58" width="5.9" height="5.94"/><rect class="cls-1" x="40.1" y="52" width="5.9" height="5.94"/><rect class="cls-1" x="40.1" y="46.1" width="5.9" height="5.95"/><rect class="cls-1" x="40.1" y="40.1" width="5.9" height="5.94"/><rect class="cls-1" x="40.1" y="34.2" width="5.9" height="5.94"/><rect class="cls-1" x="34.2" y="69.9" width="5.9" height="5.94"/><rect class="cls-1" x="34.2" y="63.9" width="5.9" height="5.94"/><rect class="cls-1" x="34.2" y="58" width="5.9" height="5.94"/><rect class="cls-1" x="34.2" y="52" width="5.9" height="5.94"/><rect class="cls-1" x="34.2" y="46.1" width="5.9" height="5.95"/><rect class="cls-1" x="34.2" y="40.1" width="5.9" height="5.94"/><rect class="cls-1" x="34.2" y="34.2" width="5.9" height="5.94"/><rect class="cls-1" x="34.2" y="28.3" width="5.9" height="5.94"/><rect class="cls-1" x="28.3" y="69.9" width="5.9" height="5.94"/><rect class="cls-1" x="28.3" y="63.9" width="5.9" height="5.94"/><rect class="cls-1" x="28.3" y="58" width="5.9" height="5.94"/><rect class="cls-1" x="28.3" y="52" width="5.9" height="5.94"/><rect class="cls-1" x="28.3" y="46.1" width="5.9" height="5.95"/><rect class="cls-1" x="28.3" y="40.1" width="5.9" height="5.94"/><rect class="cls-1" x="28.3" y="34.2" width="5.9" height="5.94"/><rect class="cls-1" x="28.3" y="28.3" width="5.9" height="5.94"/><rect class="cls-1" x="22.3" y="46.1" width="5.9" height="5.95"/><rect class="cls-1" x="22.3" y="40.1" width="5.9" height="5.94"/><rect class="cls-1" x="22.3" y="34.2" width="5.9" height="5.94"/><rect class="cls-1" x="22.3" y="28.3" width="5.9" height="5.94"/><rect class="cls-1" x="22.3" y="22.3" width="5.9" height="5.94"/><rect class="cls-1" x="22.3" y="16.4" width="5.9" height="5.94"/><rect class="cls-2" x="93.6" y="81.7" width="5.9" height="5.94"/><rect class="cls-2" x="87.7" y="87.7" width="5.9" height="5.94"/><rect class="cls-2" x="81.7" y="93.6" width="5.9" height="5.94"/><rect class="cls-2" x="75.8" y="93.6" width="5.9" height="5.94"/><rect class="cls-2" x="69.9" y="93.6" width="5.9" height="5.94"/><rect class="cls-2" x="63.9" y="93.6" width="5.9" height="5.94"/><rect class="cls-2" x="58" y="93.6" width="5.9" height="5.94"/><rect class="cls-2" x="52" y="93.6" width="5.9" height="5.94"/><rect class="cls-2" x="46.1" y="93.6" width="5.9" height="5.94"/><rect class="cls-2" x="40.1" y="93.6" width="5.9" height="5.94"/><rect class="cls-2" x="34.2" y="93.6" width="5.9" height="5.94"/><rect class="cls-2" x="28.3" y="93.6" width="5.9" height="5.94"/><rect class="cls-2" x="22.3" y="93.6" width="5.9" height="5.94"/><rect class="cls-2" x="16.4" y="87.7" width="5.9" height="5.94"/><rect class="cls-3" x="99.6" y="81.7" width="5.9" height="5.94"/><rect class="cls-3" x="99.6" y="75.8" width="5.9" height="5.94"/><rect class="cls-3" x="99.6" y="69.9" width="5.9" height="5.94"/><rect class="cls-3" x="99.6" y="63.9" width="5.9" height="5.94"/><rect class="cls-3" x="99.6" y="58" width="5.9" height="5.94"/><rect class="cls-3" x="99.6" y="52" width="5.9" height="5.94"/><rect class="cls-3" x="99.6" y="46.1" width="5.9" height="5.95"/><rect class="cls-3" x="99.6" y="40.1" width="5.9" height="5.94"/><rect class="cls-3" x="99.6" y="34.2" width="5.9" height="5.94"/><rect class="cls-3" x="99.6" y="28.3" width="5.9" height="5.94"/><rect class="cls-3" x="99.6" y="22.3" width="5.9" height="5.94"/><rect class="cls-3" x="93.6" y="87.7" width="5.9" height="5.94"/><rect class="cls-2" x="93.6" y="75.8" width="5.9" height="5.94"/><rect class="cls-2" x="93.6" y="69.9" width="5.9" height="5.94"/><rect class="cls-2" x="93.6" y="63.9" width="5.9" height="5.94"/><rect class="cls-2" x="93.6" y="58" width="5.9" height="5.94"/><rect class="cls-2" x="93.6" y="52" width="5.9" height="5.94"/><rect class="cls-2" x="93.6" y="46.1" width="5.9" height="5.95"/><rect class="cls-2" x="93.6" y="40.1" width="5.9" height="5.94"/><rect class="cls-2" x="93.6" y="34.2" width="5.9" height="5.94"/><rect class="cls-2" x="93.6" y="28.3" width="5.9" height="5.94"/><rect class="cls-2" x="93.6" y="22.3" width="5.9" height="5.94"/><rect class="cls-3" x="93.6" y="16.4" width="5.9" height="5.94"/><rect class="cls-3" x="87.7" y="93.6" width="5.9" height="5.94"/><rect class="cls-2" x="87.7" y="16.4" width="5.9" height="5.94"/><rect class="cls-3" x="87.7" y="10.4" width="5.9" height="5.94"/><rect class="cls-3" x="81.7" y="99.6" width="5.9" height="5.94"/><rect class="cls-2" x="81.7" y="10.4" width="5.9" height="5.94"/><rect class="cls-3" x="81.7" y="4.5" width="5.9" height="5.94"/><rect class="cls-3" x="75.8" y="99.6" width="5.9" height="5.94"/><rect class="cls-2" x="75.8" y="10.4" width="5.9" height="5.94"/><rect class="cls-3" x="75.8" y="4.5" width="5.9" height="5.94"/><rect class="cls-3" x="69.9" y="99.6" width="5.9" height="5.94"/><rect class="cls-2" x="69.9" y="10.4" width="5.9" height="5.94"/><rect class="cls-3" x="69.9" y="4.5" width="5.9" height="5.94"/><rect class="cls-3" x="63.9" y="99.6" width="5.9" height="5.94"/><rect class="cls-2" x="63.9" y="10.4" width="5.9" height="5.94"/><rect class="cls-3" x="63.9" y="4.5" width="5.9" height="5.94"/><rect class="cls-3" x="58" y="99.6" width="5.9" height="5.94"/><rect class="cls-2" x="58" y="10.4" width="5.9" height="5.94"/><rect class="cls-3" x="58" y="4.5" width="5.9" height="5.94"/><rect class="cls-3" x="52" y="99.6" width="5.9" height="5.94"/><rect class="cls-2" x="52" y="10.4" width="5.9" height="5.94"/><rect class="cls-3" x="52" y="4.5" width="5.9" height="5.94"/><rect class="cls-3" x="46.1" y="99.6" width="5.9" height="5.94"/><rect class="cls-2" x="46.1" y="10.4" width="5.9" height="5.94"/><rect class="cls-3" x="46.1" y="4.5" width="5.9" height="5.94"/><rect class="cls-3" x="40.1" y="99.6" width="5.9" height="5.94"/><rect class="cls-2" x="40.1" y="10.4" width="5.9" height="5.94"/><rect class="cls-3" x="40.1" y="4.5" width="5.9" height="5.94"/><rect class="cls-3" x="34.2" y="99.6" width="5.9" height="5.94"/><rect class="cls-2" x="34.2" y="10.4" width="5.9" height="5.94"/><rect class="cls-3" x="34.2" y="4.5" width="5.9" height="5.94"/><rect class="cls-3" x="28.3" y="99.6" width="5.9" height="5.94"/><rect class="cls-2" x="28.3" y="10.4" width="5.9" height="5.94"/><rect class="cls-3" x="28.3" y="4.5" width="5.9" height="5.94"/><rect class="cls-3" x="22.3" y="99.6" width="5.9" height="5.94"/><rect class="cls-2" x="22.3" y="10.4" width="5.9" height="5.94"/><rect class="cls-3" x="22.3" y="4.5" width="5.9" height="5.94"/><rect class="cls-3" x="16.4" y="93.6" width="5.9" height="5.94"/><rect class="cls-2" x="16.4" y="16.4" width="5.9" height="5.94"/><rect class="cls-3" x="16.4" y="10.4" width="5.9" height="5.94"/><rect class="cls-3" x="10.4" y="87.7" width="5.9" height="5.94"/><rect class="cls-2" x="10.4" y="81.7" width="5.9" height="5.94"/><rect class="cls-2" x="10.4" y="75.8" width="5.9" height="5.94"/><rect class="cls-2" x="10.4" y="69.9" width="5.9" height="5.94"/><rect class="cls-2" x="10.4" y="63.9" width="5.9" height="5.94"/><rect class="cls-2" x="10.4" y="58" width="5.9" height="5.94"/><rect class="cls-2" x="10.4" y="52" width="5.9" height="5.94"/><rect class="cls-2" x="10.4" y="46.1" width="5.9" height="5.95"/><rect class="cls-2" x="10.4" y="40.1" width="5.9" height="5.94"/><rect class="cls-2" x="10.4" y="34.2" width="5.9" height="5.94"/><rect class="cls-2" x="10.4" y="28.3" width="5.9" height="5.94"/><rect class="cls-2" x="10.4" y="22.3" width="5.9" height="5.94"/><rect class="cls-3" x="10.4" y="16.4" width="5.9" height="5.94"/><rect class="cls-3" x="4.5" y="81.7" width="5.9" height="5.94"/><rect class="cls-3" x="4.5" y="75.8" width="5.9" height="5.94"/><rect class="cls-3" x="4.5" y="69.9" width="5.9" height="5.94"/><rect class="cls-3" x="4.5" y="63.9" width="5.9" height="5.94"/><rect class="cls-3" x="4.5" y="58" width="5.9" height="5.94"/><rect class="cls-3" x="4.5" y="52" width="5.9" height="5.94"/><rect class="cls-3" x="4.5" y="46.1" width="5.9" height="5.95"/><rect class="cls-3" x="4.5" y="40.1" width="5.9" height="5.94"/><rect class="cls-3" x="4.5" y="34.2" width="5.9" height="5.94"/><rect class="cls-3" x="4.5" y="28.3" width="5.9" height="5.94"/><rect class="cls-3" x="4.5" y="22.3" width="5.9" height="5.94"/></svg>
