<svg id="Layer_1" data-name="Layer 1" xmlns="http://www.w3.org/2000/svg" width="760" height="110" viewBox="0 0 760 110"><defs><style>.cls-1{fill:#f2cece;}.cls-2{fill:#f2798f;}.cls-3{fill:#9bc1bb;}</style></defs><title>LOGO_blue</title><path class="cls-1" d="M15,92.7V42.4H29.3V56.7h7.2V49.5h7.2V42.3H58v7.2H50.9v7.2H43.7v7.2H36.5v7.2h7.2v7.2h7.1v7.2h7.1v7.2H43.8V85.5H36.6V78.3H29.4V92.7Z"/><path class="cls-1" d="M72.5,92.6V42.2h43.1v7.2H86.8V63.8h21.6v7.2H86.9V85.3h28.7v7.2Z"/><path class="cls-1" d="M130,92.4V42.1l43.1-.2v7.2H144.3V63.6h21.6v7.2H144.4V85.2h28.7v7.2Z"/><path class="cls-1" d="M187.5,92.2V41.9h35.9V49H201.8V63.4h21.6v7.1H201.9V92.2Zm35.9-28.8V49h7.1V63.3Z"/><path class="cls-1" d="M259.4,92V84.8h7.2V48.9h-7.2V41.7H288v7.2h-7.1V84.7h7.1v7.2Z"/><path class="cls-1" d="M316.9,91.8V48.7H302.4V41.6l43.1-.2v7.2H331.2V91.8Z"/><path class="cls-1" d="M381.6,91.6V41.3h35.9v7.2H395.9V62.8h21.6V70H395.9V91.6Zm35.9-28.8V48.4h7.2V62.8Z"/><path class="cls-1" d="M439.1,91.5V41.1h35.9v7.2h7.2V62.6H475v7.2h7.2V91.3H467.9V69.8H453.4V91.4Zm28.7-28.9V48.3H453.4V62.7Z"/><path class="cls-1" d="M489.4,91.3V84.1h7.2V48.2h-7.2V41H518v7.2h-7.1v36h7.1v7.2Z"/><path class="cls-1" d="M532.5,91.2V40.9h14.4V84h14.4v7.2Zm28.8-7.3-.2-43.1h14.4v36h-7.2v7.2Z"/><path class="cls-1" d="M590,91V47.9h7.2V40.7h28.7v7.2H633l.2,43.1H618.8V69.4H604.4V91Zm28.7-28.8V47.8H604.3V62.2Z"/><path class="cls-1" d="M661.9,90.8V47.7H647.4V40.5h43.1v7.2H676.2V90.8Z"/><path class="cls-1" d="M705,90.7V40.4l43.1-.2v7.2H719.3V61.9h21.6V69H719.4V83.4h28.7v7.1Z"/><path class="cls-2" d="M12,87.7V37.4H26.3V51.8h7.2V44.6h7.2V37.3H55v7.2H47.8v7.2H40.7v7.2H33.5v7.2h7.2v7.2h7.2v7.1h7.2v7.2H40.8V80.5H33.6V73.3H26.4V87.7Z"/><path class="cls-2" d="M69.5,87.6V37.3l43.1-.2v7.2H83.8V58.8h21.6v7.2H83.8V80.3h28.7v7.1Z"/><path class="cls-2" d="M127,87.4V37.1H170v7.1H141.3V58.6h21.6v7.2H141.3V80.2h28.7v7.2Z"/><path class="cls-2" d="M184.5,87.2V36.9h35.9V44H198.8V58.4h21.6v7.2H198.8V87.2Zm35.9-28.8V44h7.2V58.3Z"/><path class="cls-2" d="M256.4,87V79.8h7.2V43.9h-7.2V36.7H285v7.2h-7.2v36h7.2v7.2Z"/><path class="cls-2" d="M313.9,86.8V43.7H299.4V36.6l43.1-.2v7.2H328.2V86.8Z"/><path class="cls-2" d="M378.6,86.6l-.2-50.3h36v7.2H392.8V57.9h21.5V65H392.9V86.6Zm35.8-28.8V43.4h7.2V57.8Z"/><path class="cls-2" d="M436.1,86.5l-.2-50.3h36v7.1h7.2V57.6h-7.2v7.2h7.2V86.3H464.8V64.8H450.4V86.4Zm28.7-28.9V43.3H450.3V57.7Z"/><path class="cls-2" d="M486.4,86.3V79.1h7.2V43.2h-7.2V36H515v7.2h-7.2v36h7.2v7.1Z"/><path class="cls-2" d="M529.5,86.2V35.9h14.4V79h14.4v7.2Zm28.8-7.3-.2-43.1h14.4V71.7h-7.2v7.2Z"/><path class="cls-2" d="M587,86V42.9h7.2V35.7h28.7v7.2H630l.2,43.1H615.8V64.4H601.3V86Zm28.7-28.8V42.8H601.3V57.2Z"/><path class="cls-2" d="M658.9,85.8V42.7H644.4V35.5h43.1v7.2H673.2V85.8Z"/><path class="cls-2" d="M702,85.7V35.4l43.1-.2v7.2H716.3V56.9h21.6V64H716.3V78.5h28.7v7.2Z"/><path class="cls-3" d="M14,89.7V39.4H28.3V53.8h7.2V46.5h7.2V39.3H57v7.2H49.8v7.2H42.7v7.2H35.5v7.2h7.2v7.2h7.2v7.1h7.1v7.2H42.8V82.5H35.6V75.3H28.4V89.7Z"/><path class="cls-3" d="M71.5,89.6V39.3l43.1-.2v7.2H85.8V60.8h21.6v7.2H85.8V82.3h28.7v7.2Z"/><path class="cls-3" d="M129,89.4V39.1H172v7.1H143.3V60.6h21.6v7.2H143.3V82.2h28.7v7.2Z"/><path class="cls-3" d="M186.5,89.2V38.9h35.9V46H200.8V60.4h21.6v7.1H200.8V89.2Zm35.9-28.8V46h7.2V60.3Z"/><path class="cls-3" d="M258.4,89V81.8h7.2V45.9h-7.2V38.7H287v7.2h-7.2l.2,36h7.1v7.2Z"/><path class="cls-3" d="M315.9,88.8V45.7H301.4V38.6l43.1-.2v7.2H330.2V88.8Z"/><path class="cls-3" d="M380.6,88.6V38.3h35.9v7.2H394.8V59.8h21.6V67H394.9V88.6Zm35.9-28.8V45.4h7.2V59.8Z"/><path class="cls-3" d="M438.1,88.5V38.2l35.9-.2v7.2h7.2V59.6H474v7.2h7.2V88.3H466.9V66.8H452.4V88.4Zm28.7-28.9V45.3H452.3V59.7Z"/><path class="cls-3" d="M488.4,88.3V81.1h7.2V45.2h-7.2V38H517v7.2h-7.2l.2,36h7.1v7.2Z"/><path class="cls-3" d="M531.5,88.2V37.9h14.4V81h14.4v7.2Zm28.8-7.3-.2-43.1h14.4v36h-7.2v7.2Z"/><path class="cls-3" d="M589,88V44.9h7.2V37.7h28.7v7.2H632l.2,43.1H617.8V66.4H603.3V88Zm28.7-28.8V44.8H603.3V59.2Z"/><path class="cls-3" d="M660.9,87.8V44.7H646.4V37.5h43.1v7.2H675.2V87.8Z"/><path class="cls-3" d="M704,87.7V37.4l43.1-.2v7.2H718.3V58.9h21.6V66H718.3V80.4h28.7v7.1Z"/></svg>
