<svg id="Layer_1" data-name="Layer 1" xmlns="http://www.w3.org/2000/svg" width="220" height="110" viewBox="0 0 220 110"><defs><style>.cls-1{fill:#f2cece;}.cls-2{fill:#f2798f;}.cls-3{fill:#592e56;}</style></defs><title>startknap</title><rect class="cls-1" x="188.3" y="34.2" width="5.9" height="5.94"/><rect class="cls-1" x="182.4" y="63.9" width="5.9" height="5.94"/><rect class="cls-1" x="182.4" y="58" width="5.9" height="5.94"/><rect class="cls-1" x="182.4" y="52" width="5.9" height="5.94"/><rect class="cls-1" x="182.4" y="46.1" width="5.9" height="5.95"/><rect class="cls-1" x="182.4" y="40.1" width="5.9" height="5.94"/><rect class="cls-1" x="182.4" y="34.2" width="5.9" height="5.94"/><rect class="cls-1" x="182.4" y="28.3" width="5.9" height="5.94"/><rect class="cls-1" x="176.4" y="75.8" width="5.9" height="5.94"/><rect class="cls-1" x="176.4" y="69.9" width="5.9" height="5.94"/><rect class="cls-1" x="176.4" y="63.9" width="5.9" height="5.94"/><rect class="cls-1" x="176.4" y="58" width="5.9" height="5.94"/><rect class="cls-1" x="176.4" y="52" width="5.9" height="5.94"/><rect class="cls-1" x="176.4" y="46.1" width="5.9" height="5.95"/><rect class="cls-1" x="176.4" y="40.1" width="5.9" height="5.94"/><rect class="cls-1" x="176.4" y="34.2" width="5.9" height="5.94"/><rect class="cls-1" x="176.4" y="28.3" width="5.9" height="5.94"/><rect class="cls-1" x="170.5" y="75.8" width="5.9" height="5.94"/><rect class="cls-1" x="170.5" y="69.9" width="5.9" height="5.94"/><rect class="cls-1" x="170.5" y="63.9" width="5.9" height="5.94"/><rect class="cls-1" x="170.5" y="58" width="5.9" height="5.94"/><rect class="cls-1" x="170.5" y="52" width="5.9" height="5.94"/><rect class="cls-1" x="170.5" y="46.1" width="5.9" height="5.95"/><rect class="cls-1" x="170.5" y="40.1" width="5.9" height="5.94"/><rect class="cls-1" x="170.5" y="34.2" width="5.9" height="5.94"/><rect class="cls-1" x="170.5" y="28.3" width="5.9" height="5.94"/><rect class="cls-1" x="164.5" y="75.8" width="5.9" height="5.94"/><rect class="cls-1" x="164.5" y="69.9" width="5.9" height="5.94"/><rect class="cls-1" x="164.5" y="63.9" width="5.9" height="5.94"/><rect class="cls-1" x="164.5" y="58" width="5.9" height="5.94"/><rect class="cls-1" x="164.5" y="52" width="5.9" height="5.94"/><rect class="cls-1" x="164.5" y="46.1" width="5.9" height="5.95"/><rect class="cls-1" x="164.5" y="40.1" width="5.9" height="5.94"/><rect class="cls-1" x="164.5" y="34.2" width="5.9" height="5.94"/><rect class="cls-1" x="164.5" y="28.3" width="5.9" height="5.94"/><rect class="cls-1" x="194.2" y="40.1" width="5.9" height="5.94"/><rect class="cls-1" x="194.2" y="34.2" width="5.9" height="5.94"/><rect class="cls-1" x="194.2" y="28.3" width="5.9" height="5.94"/><rect class="cls-1" x="188.3" y="28.3" width="5.9" height="5.94"/><rect class="cls-1" x="188.3" y="22.3" width="5.9" height="5.94"/><rect class="cls-1" x="182.4" y="22.3" width="5.9" height="5.94"/><rect class="cls-1" x="176.4" y="22.3" width="5.9" height="5.94"/><rect class="cls-1" x="170.5" y="22.3" width="5.9" height="5.94"/><rect class="cls-1" x="164.5" y="22.3" width="5.9" height="5.94"/><rect class="cls-1" x="43.6" y="22.3" width="5.9" height="5.94"/><rect class="cls-1" x="37.6" y="22.3" width="5.9" height="5.94"/><rect class="cls-1" x="200.2" y="81.7" width="5.9" height="5.94"/><rect class="cls-1" x="200.2" y="75.8" width="5.9" height="5.94"/><rect class="cls-1" x="200.2" y="69.9" width="5.9" height="5.94"/><rect class="cls-1" x="200.2" y="63.9" width="5.9" height="5.94"/><rect class="cls-1" x="200.2" y="58" width="5.9" height="5.94"/><rect class="cls-1" x="200.2" y="52" width="5.9" height="5.94"/><rect class="cls-1" x="194.2" y="87.7" width="5.9" height="5.94"/><rect class="cls-1" x="194.2" y="81.7" width="5.9" height="5.94"/><rect class="cls-1" x="194.2" y="75.8" width="5.9" height="5.94"/><rect class="cls-1" x="188.3" y="87.7" width="5.9" height="5.94"/><rect class="cls-1" x="188.3" y="81.7" width="5.9" height="5.94"/><rect class="cls-1" x="188.3" y="75.8" width="5.9" height="5.94"/><rect class="cls-1" x="188.3" y="69.9" width="5.9" height="5.94"/><rect class="cls-1" x="188.3" y="63.9" width="5.9" height="5.94"/><rect class="cls-1" x="188.3" y="58" width="5.9" height="5.94"/><rect class="cls-1" x="188.3" y="52" width="5.9" height="5.94"/><rect class="cls-1" x="188.3" y="46.1" width="5.9" height="5.95"/><rect class="cls-1" x="188.3" y="40.1" width="5.9" height="5.94"/><rect class="cls-1" x="182.4" y="87.7" width="5.9" height="5.94"/><rect class="cls-1" x="182.4" y="81.7" width="5.9" height="5.94"/><rect class="cls-1" x="182.4" y="75.8" width="5.9" height="5.94"/><rect class="cls-1" x="182.4" y="69.9" width="5.9" height="5.94"/><rect class="cls-1" x="176.4" y="87.7" width="5.9" height="5.94"/><rect class="cls-1" x="176.4" y="81.7" width="5.9" height="5.94"/><rect class="cls-1" x="170.5" y="87.7" width="5.9" height="5.94"/><rect class="cls-1" x="170.5" y="81.7" width="5.9" height="5.94"/><rect class="cls-1" x="164.5" y="87.7" width="5.9" height="5.94"/><rect class="cls-1" x="164.5" y="81.7" width="5.9" height="5.94"/><rect class="cls-1" x="43.6" y="87.7" width="5.9" height="5.94"/><rect class="cls-1" x="43.6" y="81.7" width="5.9" height="5.94"/><rect class="cls-1" x="37.6" y="87.7" width="5.9" height="5.94"/><rect class="cls-1" x="37.6" y="81.7" width="5.9" height="5.94"/><rect class="cls-1" x="31.7" y="87.7" width="5.9" height="5.94"/><rect class="cls-1" x="25.8" y="87.7" width="5.9" height="5.94"/><rect class="cls-1" x="19.8" y="87.7" width="5.9" height="5.94"/><rect class="cls-1" x="19.8" y="75.8" width="5.9" height="5.94"/><rect class="cls-1" x="200.2" y="46.1" width="5.9" height="5.95"/><rect class="cls-1" x="200.2" y="40.1" width="5.9" height="5.94"/><rect class="cls-1" x="200.2" y="34.2" width="5.9" height="5.94"/><rect class="cls-1" x="200.2" y="28.3" width="5.9" height="5.94"/><rect class="cls-1" x="200.2" y="22.3" width="5.9" height="5.94"/><rect class="cls-1" x="194.2" y="69.9" width="5.9" height="5.94"/><rect class="cls-1" x="194.2" y="63.9" width="5.9" height="5.94"/><rect class="cls-1" x="194.2" y="58" width="5.9" height="5.94"/><rect class="cls-1" x="194.2" y="52" width="5.9" height="5.94"/><rect class="cls-1" x="194.2" y="46.1" width="5.9" height="5.95"/><rect class="cls-1" x="194.2" y="22.3" width="5.9" height="5.94"/><rect class="cls-1" x="194.2" y="16.4" width="5.9" height="5.94"/><rect class="cls-1" x="188.3" y="16.4" width="5.9" height="5.94"/><rect class="cls-1" x="182.4" y="16.4" width="5.9" height="5.94"/><rect class="cls-1" x="176.4" y="16.4" width="5.9" height="5.94"/><rect class="cls-1" x="170.5" y="16.4" width="5.9" height="5.94"/><rect class="cls-1" x="164.5" y="16.4" width="5.9" height="5.94"/><rect class="cls-1" x="43.6" y="16.4" width="5.9" height="5.94"/><rect class="cls-1" x="37.6" y="16.4" width="5.9" height="5.94"/><rect class="cls-1" x="31.7" y="16.4" width="5.9" height="5.94"/><rect class="cls-1" x="25.8" y="16.4" width="5.9" height="5.94"/><rect class="cls-1" x="31.7" y="81.7" width="5.9" height="5.94"/><rect class="cls-1" x="31.7" y="75.8" width="5.9" height="5.94"/><rect class="cls-1" x="25.8" y="81.7" width="5.9" height="5.94"/><rect class="cls-1" x="25.8" y="75.8" width="5.9" height="5.94"/><rect class="cls-1" x="19.8" y="81.7" width="5.9" height="5.94"/><rect class="cls-1" x="13.9" y="81.7" width="5.9" height="5.94"/><rect class="cls-1" x="13.9" y="75.8" width="5.9" height="5.94"/><rect class="cls-1" x="13.9" y="69.9" width="5.9" height="5.94"/><rect class="cls-1" x="13.9" y="63.9" width="5.9" height="5.94"/><rect class="cls-1" x="13.9" y="58" width="5.9" height="5.94"/><rect class="cls-1" x="13.9" y="52" width="5.9" height="5.94"/><rect class="cls-1" x="13.9" y="46.1" width="5.9" height="5.95"/><rect class="cls-1" x="13.9" y="22.3" width="5.9" height="5.94"/><rect class="cls-1" x="43.6" y="75.8" width="5.9" height="5.94"/><rect class="cls-1" x="43.6" y="69.9" width="5.9" height="5.94"/><rect class="cls-1" x="43.6" y="63.9" width="5.9" height="5.94"/><rect class="cls-1" x="43.6" y="40.1" width="5.9" height="5.94"/><rect class="cls-1" x="43.6" y="34.2" width="5.9" height="5.94"/><rect class="cls-1" x="43.6" y="28.3" width="5.9" height="5.94"/><rect class="cls-1" x="19.8" y="69.9" width="5.9" height="5.94"/><rect class="cls-1" x="19.8" y="63.9" width="5.9" height="5.94"/><rect class="cls-1" x="19.8" y="58" width="5.9" height="5.94"/><rect class="cls-1" x="19.8" y="52" width="5.9" height="5.94"/><rect class="cls-1" x="13.9" y="40.1" width="5.9" height="5.94"/><rect class="cls-1" x="43.6" y="58" width="5.9" height="5.94"/><rect class="cls-1" x="43.6" y="52" width="5.9" height="5.94"/><rect class="cls-1" x="43.6" y="46.1" width="5.9" height="5.95"/><rect class="cls-1" x="37.6" y="75.8" width="5.9" height="5.94"/><rect class="cls-1" x="37.6" y="69.9" width="5.9" height="5.94"/><rect class="cls-1" x="37.6" y="28.3" width="5.9" height="5.94"/><rect class="cls-1" x="31.7" y="22.3" width="5.9" height="5.94"/><rect class="cls-1" x="25.8" y="22.3" width="5.9" height="5.94"/><rect class="cls-1" x="13.9" y="34.2" width="5.9" height="5.94"/><rect class="cls-1" x="13.9" y="28.3" width="5.9" height="5.94"/><rect class="cls-1" x="37.6" y="63.9" width="5.9" height="5.94"/><rect class="cls-1" x="37.6" y="58" width="5.9" height="5.94"/><rect class="cls-1" x="37.6" y="52" width="5.9" height="5.94"/><rect class="cls-1" x="37.6" y="46.1" width="5.9" height="5.95"/><rect class="cls-1" x="37.6" y="40.1" width="5.9" height="5.94"/><rect class="cls-1" x="37.6" y="34.2" width="5.9" height="5.94"/><rect class="cls-1" x="31.7" y="69.9" width="5.9" height="5.94"/><rect class="cls-1" x="31.7" y="63.9" width="5.9" height="5.94"/><rect class="cls-1" x="31.7" y="58" width="5.9" height="5.94"/><rect class="cls-1" x="31.7" y="52" width="5.9" height="5.94"/><rect class="cls-1" x="31.7" y="46.1" width="5.9" height="5.95"/><rect class="cls-1" x="31.7" y="40.1" width="5.9" height="5.94"/><rect class="cls-1" x="31.7" y="34.2" width="5.9" height="5.94"/><rect class="cls-1" x="31.7" y="28.3" width="5.9" height="5.94"/><rect class="cls-1" x="25.8" y="69.9" width="5.9" height="5.94"/><rect class="cls-1" x="25.8" y="63.9" width="5.9" height="5.94"/><rect class="cls-1" x="25.8" y="58" width="5.9" height="5.94"/><rect class="cls-1" x="25.8" y="52" width="5.9" height="5.94"/><rect class="cls-1" x="25.8" y="46.1" width="5.9" height="5.95"/><rect class="cls-1" x="25.8" y="40.1" width="5.9" height="5.94"/><rect class="cls-1" x="25.8" y="34.2" width="5.9" height="5.94"/><rect class="cls-1" x="25.8" y="28.3" width="5.9" height="5.94"/><rect class="cls-1" x="19.8" y="46.1" width="5.9" height="5.95"/><rect class="cls-1" x="19.8" y="40.1" width="5.9" height="5.94"/><rect class="cls-1" x="19.8" y="34.2" width="5.9" height="5.94"/><rect class="cls-1" x="19.8" y="28.3" width="5.9" height="5.94"/><rect class="cls-1" x="19.8" y="22.3" width="5.9" height="5.94"/><rect class="cls-1" x="19.8" y="16.4" width="5.9" height="5.94"/><rect class="cls-2" x="206.1" y="81.7" width="5.9" height="5.94"/><rect class="cls-2" x="200.2" y="87.7" width="5.9" height="5.94"/><rect class="cls-2" x="194.2" y="93.6" width="5.9" height="5.94"/><rect class="cls-2" x="188.3" y="93.6" width="5.9" height="5.94"/><rect class="cls-2" x="182.4" y="93.6" width="5.9" height="5.94"/><rect class="cls-2" x="176.4" y="93.6" width="5.9" height="5.94"/><rect class="cls-2" x="170.5" y="93.6" width="5.9" height="5.94"/><rect class="cls-2" x="164.5" y="93.6" width="5.9" height="5.94"/><rect class="cls-2" x="43.6" y="93.6" width="5.9" height="5.94"/><rect class="cls-2" x="37.6" y="93.6" width="5.9" height="5.94"/><rect class="cls-2" x="31.7" y="93.6" width="5.9" height="5.94"/><rect class="cls-2" x="25.8" y="93.6" width="5.9" height="5.94"/><rect class="cls-2" x="19.8" y="93.6" width="5.9" height="5.94"/><rect class="cls-2" x="13.9" y="87.7" width="5.9" height="5.94"/><rect class="cls-3" x="212.1" y="81.7" width="5.9" height="5.94"/><rect class="cls-3" x="212.1" y="75.8" width="5.9" height="5.94"/><rect class="cls-3" x="212.1" y="69.9" width="5.9" height="5.94"/><rect class="cls-3" x="212.1" y="63.9" width="5.9" height="5.94"/><rect class="cls-3" x="212.1" y="58" width="5.9" height="5.94"/><rect class="cls-3" x="212.1" y="52" width="5.9" height="5.94"/><rect class="cls-3" x="212.1" y="46.1" width="5.9" height="5.95"/><rect class="cls-3" x="212.1" y="40.1" width="5.9" height="5.94"/><rect class="cls-3" x="212.1" y="34.2" width="5.9" height="5.94"/><rect class="cls-3" x="212.1" y="28.3" width="5.9" height="5.94"/><rect class="cls-3" x="212.1" y="22.3" width="5.9" height="5.94"/><rect class="cls-3" x="206.1" y="87.7" width="5.9" height="5.94"/><rect class="cls-2" x="206.1" y="75.8" width="5.9" height="5.94"/><rect class="cls-2" x="206.1" y="69.9" width="5.9" height="5.94"/><rect class="cls-2" x="206.1" y="63.9" width="5.9" height="5.94"/><rect class="cls-2" x="206.1" y="58" width="5.9" height="5.94"/><rect class="cls-2" x="206.1" y="52" width="5.9" height="5.94"/><rect class="cls-2" x="206.1" y="46.1" width="5.9" height="5.95"/><rect class="cls-2" x="206.1" y="40.1" width="5.9" height="5.94"/><rect class="cls-2" x="206.1" y="34.2" width="5.9" height="5.94"/><rect class="cls-2" x="206.1" y="28.3" width="5.9" height="5.94"/><rect class="cls-2" x="206.1" y="22.3" width="5.9" height="5.94"/><rect class="cls-3" x="206.1" y="16.4" width="5.9" height="5.94"/><rect class="cls-3" x="200.2" y="93.6" width="5.9" height="5.94"/><rect class="cls-2" x="200.2" y="16.4" width="5.9" height="5.94"/><rect class="cls-3" x="200.2" y="10.4" width="5.9" height="5.94"/><rect class="cls-3" x="194.2" y="99.6" width="5.9" height="5.94"/><rect class="cls-2" x="194.2" y="10.4" width="5.9" height="5.94"/><rect class="cls-3" x="194.2" y="4.5" width="5.9" height="5.94"/><rect class="cls-3" x="188.3" y="99.6" width="5.9" height="5.94"/><rect class="cls-2" x="188.3" y="10.4" width="5.9" height="5.94"/><rect class="cls-3" x="188.3" y="4.5" width="5.9" height="5.94"/><rect class="cls-3" x="182.4" y="99.6" width="5.9" height="5.94"/><rect class="cls-2" x="182.4" y="10.4" width="5.9" height="5.94"/><rect class="cls-3" x="182.4" y="4.5" width="5.9" height="5.94"/><rect class="cls-3" x="176.4" y="99.6" width="5.9" height="5.94"/><rect class="cls-2" x="176.4" y="10.4" width="5.9" height="5.94"/><rect class="cls-3" x="176.4" y="4.5" width="5.9" height="5.94"/><rect class="cls-3" x="170.5" y="99.6" width="5.9" height="5.94"/><rect class="cls-2" x="170.5" y="10.4" width="5.9" height="5.94"/><rect class="cls-3" x="170.5" y="4.5" width="5.9" height="5.94"/><rect class="cls-3" x="164.5" y="99.6" width="5.9" height="5.94"/><rect class="cls-2" x="164.5" y="10.4" width="5.9" height="5.94"/><rect class="cls-3" x="164.5" y="4.5" width="5.9" height="5.94"/><rect class="cls-1" x="153.3" y="34.2" width="5.9" height="5.94"/><rect class="cls-1" x="147.4" y="63.9" width="5.9" height="5.94"/><rect class="cls-1" x="147.4" y="58" width="5.9" height="5.94"/><rect class="cls-1" x="147.4" y="52" width="5.9" height="5.94"/><rect class="cls-1" x="147.4" y="46.1" width="5.9" height="5.95"/><rect class="cls-1" x="147.4" y="40.1" width="5.9" height="5.94"/><rect class="cls-1" x="147.4" y="34.2" width="5.9" height="5.94"/><rect class="cls-1" x="147.4" y="28.3" width="5.9" height="5.94"/><rect class="cls-1" x="141.4" y="75.8" width="5.9" height="5.94"/><rect class="cls-1" x="141.4" y="69.9" width="5.9" height="5.94"/><rect class="cls-1" x="141.4" y="63.9" width="5.9" height="5.94"/><rect class="cls-1" x="141.4" y="58" width="5.9" height="5.94"/><rect class="cls-1" x="141.4" y="52" width="5.9" height="5.94"/><rect class="cls-1" x="141.4" y="46.1" width="5.9" height="5.95"/><rect class="cls-1" x="141.4" y="40.1" width="5.9" height="5.94"/><rect class="cls-1" x="141.4" y="34.2" width="5.9" height="5.94"/><rect class="cls-1" x="141.4" y="28.3" width="5.9" height="5.94"/><rect class="cls-1" x="135.5" y="75.8" width="5.9" height="5.94"/><rect class="cls-1" x="135.5" y="69.9" width="5.9" height="5.94"/><rect class="cls-1" x="135.5" y="63.9" width="5.9" height="5.94"/><rect class="cls-1" x="135.5" y="58" width="5.9" height="5.94"/><rect class="cls-1" x="135.5" y="52" width="5.9" height="5.94"/><rect class="cls-1" x="135.5" y="46.1" width="5.9" height="5.95"/><rect class="cls-1" x="135.5" y="40.1" width="5.9" height="5.94"/><rect class="cls-1" x="135.5" y="34.2" width="5.9" height="5.94"/><rect class="cls-1" x="135.5" y="28.3" width="5.9" height="5.94"/><rect class="cls-1" x="129.5" y="75.8" width="5.9" height="5.94"/><rect class="cls-1" x="129.5" y="69.9" width="5.9" height="5.94"/><rect class="cls-1" x="129.5" y="63.9" width="5.9" height="5.94"/><rect class="cls-1" x="129.5" y="58" width="5.9" height="5.94"/><rect class="cls-1" x="129.5" y="52" width="5.9" height="5.94"/><rect class="cls-1" x="129.5" y="46.1" width="5.9" height="5.95"/><rect class="cls-1" x="129.5" y="40.1" width="5.9" height="5.94"/><rect class="cls-1" x="129.5" y="34.2" width="5.9" height="5.94"/><rect class="cls-1" x="129.5" y="28.3" width="5.9" height="5.94"/><rect class="cls-1" x="159.2" y="40.1" width="5.9" height="5.94"/><rect class="cls-1" x="159.2" y="34.2" width="5.9" height="5.94"/><rect class="cls-1" x="159.2" y="28.3" width="5.9" height="5.94"/><rect class="cls-1" x="153.3" y="28.3" width="5.9" height="5.94"/><rect class="cls-1" x="153.3" y="22.3" width="5.9" height="5.94"/><rect class="cls-1" x="147.4" y="22.3" width="5.9" height="5.94"/><rect class="cls-1" x="141.4" y="22.3" width="5.9" height="5.94"/><rect class="cls-1" x="135.5" y="22.3" width="5.9" height="5.94"/><rect class="cls-1" x="129.5" y="22.3" width="5.9" height="5.94"/><rect class="cls-1" x="159.2" y="87.7" width="5.9" height="5.94"/><rect class="cls-1" x="159.2" y="81.7" width="5.9" height="5.94"/><rect class="cls-1" x="159.2" y="75.8" width="5.9" height="5.94"/><rect class="cls-1" x="153.3" y="87.7" width="5.9" height="5.94"/><rect class="cls-1" x="153.3" y="81.7" width="5.9" height="5.94"/><rect class="cls-1" x="153.3" y="75.8" width="5.9" height="5.94"/><rect class="cls-1" x="153.3" y="69.9" width="5.9" height="5.94"/><rect class="cls-1" x="153.3" y="63.9" width="5.9" height="5.94"/><rect class="cls-1" x="153.3" y="58" width="5.9" height="5.94"/><rect class="cls-1" x="153.3" y="52" width="5.9" height="5.94"/><rect class="cls-1" x="153.3" y="46.1" width="5.9" height="5.95"/><rect class="cls-1" x="153.3" y="40.1" width="5.9" height="5.94"/><rect class="cls-1" x="147.4" y="87.7" width="5.9" height="5.94"/><rect class="cls-1" x="147.4" y="81.7" width="5.9" height="5.94"/><rect class="cls-1" x="147.4" y="75.8" width="5.9" height="5.94"/><rect class="cls-1" x="147.4" y="69.9" width="5.9" height="5.94"/><rect class="cls-1" x="141.4" y="87.7" width="5.9" height="5.94"/><rect class="cls-1" x="141.4" y="81.7" width="5.9" height="5.94"/><rect class="cls-1" x="135.5" y="87.7" width="5.9" height="5.94"/><rect class="cls-1" x="135.5" y="81.7" width="5.9" height="5.94"/><rect class="cls-1" x="129.5" y="87.7" width="5.9" height="5.94"/><rect class="cls-1" x="129.5" y="81.7" width="5.9" height="5.94"/><rect class="cls-1" x="159.2" y="69.9" width="5.9" height="5.94"/><rect class="cls-1" x="159.2" y="63.9" width="5.9" height="5.94"/><rect class="cls-1" x="159.2" y="58" width="5.9" height="5.94"/><rect class="cls-1" x="159.2" y="52" width="5.9" height="5.94"/><rect class="cls-1" x="159.2" y="46.1" width="5.9" height="5.95"/><rect class="cls-1" x="159.2" y="22.3" width="5.9" height="5.94"/><rect class="cls-1" x="159.2" y="16.4" width="5.9" height="5.94"/><rect class="cls-1" x="153.3" y="16.4" width="5.9" height="5.94"/><rect class="cls-1" x="147.4" y="16.4" width="5.9" height="5.94"/><rect class="cls-1" x="141.4" y="16.4" width="5.9" height="5.94"/><rect class="cls-1" x="135.5" y="16.4" width="5.9" height="5.94"/><rect class="cls-1" x="129.5" y="16.4" width="5.9" height="5.94"/><rect class="cls-2" x="159.2" y="93.6" width="5.9" height="5.94"/><rect class="cls-2" x="153.3" y="93.6" width="5.9" height="5.94"/><rect class="cls-2" x="147.4" y="93.6" width="5.9" height="5.94"/><rect class="cls-2" x="141.4" y="93.6" width="5.9" height="5.94"/><rect class="cls-2" x="135.5" y="93.6" width="5.9" height="5.94"/><rect class="cls-2" x="129.5" y="93.6" width="5.9" height="5.94"/><rect class="cls-3" x="159.2" y="99.6" width="5.9" height="5.94"/><rect class="cls-2" x="159.2" y="10.4" width="5.9" height="5.94"/><rect class="cls-3" x="159.2" y="4.5" width="5.9" height="5.94"/><rect class="cls-3" x="153.3" y="99.6" width="5.9" height="5.94"/><rect class="cls-2" x="153.3" y="10.4" width="5.9" height="5.94"/><rect class="cls-3" x="153.3" y="4.5" width="5.9" height="5.94"/><rect class="cls-3" x="147.4" y="99.6" width="5.9" height="5.94"/><rect class="cls-2" x="147.4" y="10.4" width="5.9" height="5.94"/><rect class="cls-3" x="147.4" y="4.5" width="5.9" height="5.94"/><rect class="cls-3" x="141.4" y="99.6" width="5.9" height="5.94"/><rect class="cls-2" x="141.4" y="10.4" width="5.9" height="5.94"/><rect class="cls-3" x="141.4" y="4.5" width="5.9" height="5.94"/><rect class="cls-3" x="135.5" y="99.6" width="5.9" height="5.94"/><rect class="cls-2" x="135.5" y="10.4" width="5.9" height="5.94"/><rect class="cls-3" x="135.5" y="4.5" width="5.9" height="5.94"/><rect class="cls-3" x="129.5" y="99.6" width="5.9" height="5.94"/><rect class="cls-2" x="129.5" y="10.4" width="5.9" height="5.94"/><rect class="cls-3" x="129.5" y="4.5" width="5.9" height="5.94"/><rect class="cls-1" x="124.3" y="34.2" width="5.9" height="5.94"/><rect class="cls-1" x="118.4" y="63.9" width="5.9" height="5.94"/><rect class="cls-1" x="118.4" y="58" width="5.9" height="5.94"/><rect class="cls-1" x="118.4" y="52" width="5.9" height="5.94"/><rect class="cls-1" x="118.4" y="46.1" width="5.9" height="5.95"/><rect class="cls-1" x="118.4" y="40.1" width="5.9" height="5.94"/><rect class="cls-1" x="118.4" y="34.2" width="5.9" height="5.94"/><rect class="cls-1" x="118.4" y="28.3" width="5.9" height="5.94"/><rect class="cls-1" x="112.4" y="75.8" width="5.9" height="5.94"/><rect class="cls-1" x="112.4" y="69.9" width="5.9" height="5.94"/><rect class="cls-1" x="112.4" y="63.9" width="5.9" height="5.94"/><rect class="cls-1" x="112.4" y="58" width="5.9" height="5.94"/><rect class="cls-1" x="112.4" y="52" width="5.9" height="5.94"/><rect class="cls-1" x="112.4" y="46.1" width="5.9" height="5.95"/><rect class="cls-1" x="112.4" y="40.1" width="5.9" height="5.94"/><rect class="cls-1" x="112.4" y="34.2" width="5.9" height="5.94"/><rect class="cls-1" x="112.4" y="28.3" width="5.9" height="5.94"/><rect class="cls-1" x="106.5" y="75.8" width="5.9" height="5.94"/><rect class="cls-1" x="106.5" y="69.9" width="5.9" height="5.94"/><rect class="cls-1" x="106.5" y="63.9" width="5.9" height="5.94"/><rect class="cls-1" x="106.5" y="58" width="5.9" height="5.94"/><rect class="cls-1" x="106.5" y="52" width="5.9" height="5.94"/><rect class="cls-1" x="106.5" y="46.1" width="5.9" height="5.95"/><rect class="cls-1" x="106.5" y="40.1" width="5.9" height="5.94"/><rect class="cls-1" x="106.5" y="34.2" width="5.9" height="5.94"/><rect class="cls-1" x="106.5" y="28.3" width="5.9" height="5.94"/><rect class="cls-1" x="100.5" y="75.8" width="5.9" height="5.94"/><rect class="cls-1" x="100.5" y="69.9" width="5.9" height="5.94"/><rect class="cls-1" x="100.5" y="63.9" width="5.9" height="5.94"/><rect class="cls-1" x="100.5" y="58" width="5.9" height="5.94"/><rect class="cls-1" x="100.5" y="52" width="5.9" height="5.94"/><rect class="cls-1" x="100.5" y="46.1" width="5.9" height="5.95"/><rect class="cls-1" x="100.5" y="40.1" width="5.9" height="5.94"/><rect class="cls-1" x="100.5" y="34.2" width="5.9" height="5.94"/><rect class="cls-1" x="100.5" y="28.3" width="5.9" height="5.94"/><rect class="cls-1" x="124.3" y="28.3" width="5.9" height="5.94"/><rect class="cls-1" x="124.3" y="22.3" width="5.9" height="5.94"/><rect class="cls-1" x="118.4" y="22.3" width="5.9" height="5.94"/><rect class="cls-1" x="112.4" y="22.3" width="5.9" height="5.94"/><rect class="cls-1" x="106.5" y="22.3" width="5.9" height="5.94"/><rect class="cls-1" x="100.5" y="22.3" width="5.9" height="5.94"/><rect class="cls-1" x="124.3" y="87.7" width="5.9" height="5.94"/><rect class="cls-1" x="124.3" y="81.7" width="5.9" height="5.94"/><rect class="cls-1" x="124.3" y="75.8" width="5.9" height="5.94"/><rect class="cls-1" x="124.3" y="69.9" width="5.9" height="5.94"/><rect class="cls-1" x="124.3" y="63.9" width="5.9" height="5.94"/><rect class="cls-1" x="124.3" y="58" width="5.9" height="5.94"/><rect class="cls-1" x="124.3" y="52" width="5.9" height="5.94"/><rect class="cls-1" x="124.3" y="46.1" width="5.9" height="5.95"/><rect class="cls-1" x="124.3" y="40.1" width="5.9" height="5.94"/><rect class="cls-1" x="118.4" y="87.7" width="5.9" height="5.94"/><rect class="cls-1" x="118.4" y="81.7" width="5.9" height="5.94"/><rect class="cls-1" x="118.4" y="75.8" width="5.9" height="5.94"/><rect class="cls-1" x="118.4" y="69.9" width="5.9" height="5.94"/><rect class="cls-1" x="112.4" y="87.7" width="5.9" height="5.94"/><rect class="cls-1" x="112.4" y="81.7" width="5.9" height="5.94"/><rect class="cls-1" x="106.5" y="87.7" width="5.9" height="5.94"/><rect class="cls-1" x="106.5" y="81.7" width="5.9" height="5.94"/><rect class="cls-1" x="100.5" y="87.7" width="5.9" height="5.94"/><rect class="cls-1" x="100.5" y="81.7" width="5.9" height="5.94"/><rect class="cls-1" x="124.3" y="16.4" width="5.9" height="5.94"/><rect class="cls-1" x="118.4" y="16.4" width="5.9" height="5.94"/><rect class="cls-1" x="112.4" y="16.4" width="5.9" height="5.94"/><rect class="cls-1" x="106.5" y="16.4" width="5.9" height="5.94"/><rect class="cls-1" x="100.5" y="16.4" width="5.9" height="5.94"/><rect class="cls-2" x="124.3" y="93.6" width="5.9" height="5.94"/><rect class="cls-2" x="118.4" y="93.6" width="5.9" height="5.94"/><rect class="cls-2" x="112.4" y="93.6" width="5.9" height="5.94"/><rect class="cls-2" x="106.5" y="93.6" width="5.9" height="5.94"/><rect class="cls-2" x="100.5" y="93.6" width="5.9" height="5.94"/><rect class="cls-3" x="124.3" y="99.6" width="5.9" height="5.94"/><rect class="cls-2" x="124.3" y="10.4" width="5.9" height="5.94"/><rect class="cls-3" x="124.3" y="4.5" width="5.9" height="5.94"/><rect class="cls-3" x="118.4" y="99.6" width="5.9" height="5.94"/><rect class="cls-2" x="118.4" y="10.4" width="5.9" height="5.94"/><rect class="cls-3" x="118.4" y="4.5" width="5.9" height="5.94"/><rect class="cls-3" x="112.4" y="99.6" width="5.9" height="5.94"/><rect class="cls-2" x="112.4" y="10.4" width="5.9" height="5.94"/><rect class="cls-3" x="112.4" y="4.5" width="5.9" height="5.94"/><rect class="cls-3" x="106.5" y="99.6" width="5.9" height="5.94"/><rect class="cls-2" x="106.5" y="10.4" width="5.9" height="5.94"/><rect class="cls-3" x="106.5" y="4.5" width="5.9" height="5.94"/><rect class="cls-3" x="100.5" y="99.6" width="5.9" height="5.94"/><rect class="cls-2" x="100.5" y="10.4" width="5.9" height="5.94"/><rect class="cls-3" x="100.5" y="4.5" width="5.9" height="5.94"/><rect class="cls-1" x="89.3" y="34.2" width="5.9" height="5.94"/><rect class="cls-1" x="83.4" y="63.9" width="5.9" height="5.94"/><rect class="cls-1" x="83.4" y="58" width="5.9" height="5.94"/><rect class="cls-1" x="83.4" y="52" width="5.9" height="5.94"/><rect class="cls-1" x="83.4" y="46.1" width="5.9" height="5.95"/><rect class="cls-1" x="83.4" y="40.1" width="5.9" height="5.94"/><rect class="cls-1" x="83.4" y="34.2" width="5.9" height="5.94"/><rect class="cls-1" x="83.4" y="28.3" width="5.9" height="5.94"/><rect class="cls-1" x="77.4" y="75.8" width="5.9" height="5.94"/><rect class="cls-1" x="77.4" y="69.9" width="5.9" height="5.94"/><rect class="cls-1" x="77.4" y="63.9" width="5.9" height="5.94"/><rect class="cls-1" x="77.4" y="58" width="5.9" height="5.94"/><rect class="cls-1" x="77.4" y="52" width="5.9" height="5.94"/><rect class="cls-1" x="77.4" y="46.1" width="5.9" height="5.95"/><rect class="cls-1" x="77.4" y="40.1" width="5.9" height="5.94"/><rect class="cls-1" x="77.4" y="34.2" width="5.9" height="5.94"/><rect class="cls-1" x="77.4" y="28.3" width="5.9" height="5.94"/><rect class="cls-1" x="71.5" y="75.8" width="5.9" height="5.94"/><rect class="cls-1" x="71.5" y="69.9" width="5.9" height="5.94"/><rect class="cls-1" x="71.5" y="63.9" width="5.9" height="5.94"/><rect class="cls-1" x="71.5" y="58" width="5.9" height="5.94"/><rect class="cls-1" x="71.5" y="52" width="5.9" height="5.94"/><rect class="cls-1" x="71.5" y="46.1" width="5.9" height="5.95"/><rect class="cls-1" x="71.5" y="40.1" width="5.9" height="5.94"/><rect class="cls-1" x="71.5" y="34.2" width="5.9" height="5.94"/><rect class="cls-1" x="71.5" y="28.3" width="5.9" height="5.94"/><rect class="cls-1" x="65.5" y="75.8" width="5.9" height="5.94"/><rect class="cls-1" x="65.5" y="69.9" width="5.9" height="5.94"/><rect class="cls-1" x="65.5" y="63.9" width="5.9" height="5.94"/><rect class="cls-1" x="65.5" y="58" width="5.9" height="5.94"/><rect class="cls-1" x="65.5" y="52" width="5.9" height="5.94"/><rect class="cls-1" x="65.5" y="46.1" width="5.9" height="5.95"/><rect class="cls-1" x="65.5" y="40.1" width="5.9" height="5.94"/><rect class="cls-1" x="65.5" y="34.2" width="5.9" height="5.94"/><rect class="cls-1" x="65.5" y="28.3" width="5.9" height="5.94"/><rect class="cls-1" x="95.2" y="40.1" width="5.9" height="5.94"/><rect class="cls-1" x="95.2" y="34.2" width="5.9" height="5.94"/><rect class="cls-1" x="95.2" y="28.3" width="5.9" height="5.94"/><rect class="cls-1" x="89.3" y="28.3" width="5.9" height="5.94"/><rect class="cls-1" x="89.3" y="22.3" width="5.9" height="5.94"/><rect class="cls-1" x="83.4" y="22.3" width="5.9" height="5.94"/><rect class="cls-1" x="77.4" y="22.3" width="5.9" height="5.94"/><rect class="cls-1" x="71.5" y="22.3" width="5.9" height="5.94"/><rect class="cls-1" x="65.5" y="22.3" width="5.9" height="5.94"/><rect class="cls-1" x="95.2" y="87.7" width="5.9" height="5.94"/><rect class="cls-1" x="95.2" y="81.7" width="5.9" height="5.94"/><rect class="cls-1" x="95.2" y="75.8" width="5.9" height="5.94"/><rect class="cls-1" x="89.3" y="87.7" width="5.9" height="5.94"/><rect class="cls-1" x="89.3" y="81.7" width="5.9" height="5.94"/><rect class="cls-1" x="89.3" y="75.8" width="5.9" height="5.94"/><rect class="cls-1" x="89.3" y="69.9" width="5.9" height="5.94"/><rect class="cls-1" x="89.3" y="63.9" width="5.9" height="5.94"/><rect class="cls-1" x="89.3" y="58" width="5.9" height="5.94"/><rect class="cls-1" x="89.3" y="52" width="5.9" height="5.94"/><rect class="cls-1" x="89.3" y="46.1" width="5.9" height="5.95"/><rect class="cls-1" x="89.3" y="40.1" width="5.9" height="5.94"/><rect class="cls-1" x="83.4" y="87.7" width="5.9" height="5.94"/><rect class="cls-1" x="83.4" y="81.7" width="5.9" height="5.94"/><rect class="cls-1" x="83.4" y="75.8" width="5.9" height="5.94"/><rect class="cls-1" x="83.4" y="69.9" width="5.9" height="5.94"/><rect class="cls-1" x="77.4" y="87.7" width="5.9" height="5.94"/><rect class="cls-1" x="77.4" y="81.7" width="5.9" height="5.94"/><rect class="cls-1" x="71.5" y="87.7" width="5.9" height="5.94"/><rect class="cls-1" x="71.5" y="81.7" width="5.9" height="5.94"/><rect class="cls-1" x="65.5" y="87.7" width="5.9" height="5.94"/><rect class="cls-1" x="65.5" y="81.7" width="5.9" height="5.94"/><rect class="cls-1" x="95.2" y="69.9" width="5.9" height="5.94"/><rect class="cls-1" x="95.2" y="63.9" width="5.9" height="5.94"/><rect class="cls-1" x="95.2" y="58" width="5.9" height="5.94"/><rect class="cls-1" x="95.2" y="52" width="5.9" height="5.94"/><rect class="cls-1" x="95.2" y="46.1" width="5.9" height="5.95"/><rect class="cls-1" x="95.2" y="22.3" width="5.9" height="5.94"/><rect class="cls-1" x="95.2" y="16.4" width="5.9" height="5.94"/><rect class="cls-1" x="89.3" y="16.4" width="5.9" height="5.94"/><rect class="cls-1" x="83.4" y="16.4" width="5.9" height="5.94"/><rect class="cls-1" x="77.4" y="16.4" width="5.9" height="5.94"/><rect class="cls-1" x="71.5" y="16.4" width="5.9" height="5.94"/><rect class="cls-1" x="65.5" y="16.4" width="5.9" height="5.94"/><rect class="cls-2" x="95.2" y="93.6" width="5.9" height="5.94"/><rect class="cls-2" x="89.3" y="93.6" width="5.9" height="5.94"/><rect class="cls-2" x="83.4" y="93.6" width="5.9" height="5.94"/><rect class="cls-2" x="77.4" y="93.6" width="5.9" height="5.94"/><rect class="cls-2" x="71.5" y="93.6" width="5.9" height="5.94"/><rect class="cls-2" x="65.5" y="93.6" width="5.9" height="5.94"/><rect class="cls-3" x="95.2" y="99.6" width="5.9" height="5.94"/><rect class="cls-2" x="95.2" y="10.4" width="5.9" height="5.94"/><rect class="cls-3" x="95.2" y="4.5" width="5.9" height="5.94"/><rect class="cls-3" x="89.3" y="99.6" width="5.9" height="5.94"/><rect class="cls-2" x="89.3" y="10.4" width="5.9" height="5.94"/><rect class="cls-3" x="89.3" y="4.5" width="5.9" height="5.94"/><rect class="cls-3" x="83.4" y="99.6" width="5.9" height="5.94"/><rect class="cls-2" x="83.4" y="10.4" width="5.9" height="5.94"/><rect class="cls-3" x="83.4" y="4.5" width="5.9" height="5.94"/><rect class="cls-3" x="77.4" y="99.6" width="5.9" height="5.94"/><rect class="cls-2" x="77.4" y="10.4" width="5.9" height="5.94"/><rect class="cls-3" x="77.4" y="4.5" width="5.9" height="5.94"/><rect class="cls-3" x="71.5" y="99.6" width="5.9" height="5.94"/><rect class="cls-2" x="71.5" y="10.4" width="5.9" height="5.94"/><rect class="cls-3" x="71.5" y="4.5" width="5.9" height="5.94"/><rect class="cls-3" x="65.5" y="99.6" width="5.9" height="5.94"/><rect class="cls-2" x="65.5" y="10.4" width="5.9" height="5.94"/><rect class="cls-3" x="65.5" y="4.5" width="5.9" height="5.94"/><rect class="cls-1" x="60.4" y="75.8" width="5.9" height="5.94"/><rect class="cls-1" x="60.4" y="69.9" width="5.9" height="5.94"/><rect class="cls-1" x="60.4" y="63.9" width="5.9" height="5.94"/><rect class="cls-1" x="60.4" y="58" width="5.9" height="5.94"/><rect class="cls-1" x="60.4" y="52" width="5.9" height="5.94"/><rect class="cls-1" x="60.4" y="46.1" width="5.9" height="5.95"/><rect class="cls-1" x="60.4" y="40.1" width="5.9" height="5.94"/><rect class="cls-1" x="60.4" y="34.2" width="5.9" height="5.94"/><rect class="cls-1" x="60.4" y="28.3" width="5.9" height="5.94"/><rect class="cls-1" x="54.5" y="75.8" width="5.9" height="5.94"/><rect class="cls-1" x="54.5" y="69.9" width="5.9" height="5.94"/><rect class="cls-1" x="54.5" y="63.9" width="5.9" height="5.94"/><rect class="cls-1" x="54.5" y="58" width="5.9" height="5.94"/><rect class="cls-1" x="54.5" y="52" width="5.9" height="5.94"/><rect class="cls-1" x="54.5" y="46.1" width="5.9" height="5.95"/><rect class="cls-1" x="54.5" y="40.1" width="5.9" height="5.94"/><rect class="cls-1" x="54.5" y="34.2" width="5.9" height="5.94"/><rect class="cls-1" x="54.5" y="28.3" width="5.9" height="5.94"/><rect class="cls-1" x="48.5" y="75.8" width="5.9" height="5.94"/><rect class="cls-1" x="48.5" y="69.9" width="5.9" height="5.94"/><rect class="cls-1" x="48.5" y="63.9" width="5.9" height="5.94"/><rect class="cls-1" x="48.5" y="58" width="5.9" height="5.94"/><rect class="cls-1" x="48.5" y="52" width="5.9" height="5.94"/><rect class="cls-1" x="48.5" y="46.1" width="5.9" height="5.95"/><rect class="cls-1" x="48.5" y="40.1" width="5.9" height="5.94"/><rect class="cls-1" x="48.5" y="34.2" width="5.9" height="5.94"/><rect class="cls-1" x="48.5" y="28.3" width="5.9" height="5.94"/><rect class="cls-1" x="60.4" y="22.3" width="5.9" height="5.94"/><rect class="cls-1" x="54.5" y="22.3" width="5.9" height="5.94"/><rect class="cls-1" x="48.5" y="22.3" width="5.9" height="5.94"/><rect class="cls-1" x="60.4" y="87.7" width="5.9" height="5.94"/><rect class="cls-1" x="60.4" y="81.7" width="5.9" height="5.94"/><rect class="cls-1" x="54.5" y="87.7" width="5.9" height="5.94"/><rect class="cls-1" x="54.5" y="81.7" width="5.9" height="5.94"/><rect class="cls-1" x="48.5" y="87.7" width="5.9" height="5.94"/><rect class="cls-1" x="48.5" y="81.7" width="5.9" height="5.94"/><rect class="cls-1" x="60.4" y="16.4" width="5.9" height="5.94"/><rect class="cls-1" x="54.5" y="16.4" width="5.9" height="5.94"/><rect class="cls-1" x="48.5" y="16.4" width="5.9" height="5.94"/><rect class="cls-2" x="60.4" y="93.6" width="5.9" height="5.94"/><rect class="cls-2" x="54.5" y="93.6" width="5.9" height="5.94"/><rect class="cls-2" x="48.5" y="93.6" width="5.9" height="5.94"/><rect class="cls-3" x="60.4" y="99.6" width="5.9" height="5.94"/><rect class="cls-2" x="60.4" y="10.4" width="5.9" height="5.94"/><rect class="cls-3" x="60.4" y="4.5" width="5.9" height="5.94"/><rect class="cls-3" x="54.5" y="99.6" width="5.9" height="5.94"/><rect class="cls-2" x="54.5" y="10.4" width="5.9" height="5.94"/><rect class="cls-3" x="54.5" y="4.5" width="5.9" height="5.94"/><rect class="cls-3" x="48.5" y="99.6" width="5.9" height="5.94"/><rect class="cls-2" x="48.5" y="10.4" width="5.9" height="5.94"/><rect class="cls-3" x="48.5" y="4.5" width="5.9" height="5.94"/><rect class="cls-3" x="43.6" y="99.6" width="5.9" height="5.94"/><rect class="cls-2" x="43.6" y="10.4" width="5.9" height="5.94"/><rect class="cls-3" x="43.6" y="4.5" width="5.9" height="5.94"/><rect class="cls-3" x="37.6" y="99.6" width="5.9" height="5.94"/><rect class="cls-2" x="37.6" y="10.4" width="5.9" height="5.94"/><rect class="cls-3" x="37.6" y="4.5" width="5.9" height="5.94"/><rect class="cls-3" x="31.7" y="99.6" width="5.9" height="5.94"/><rect class="cls-2" x="31.7" y="10.4" width="5.9" height="5.94"/><rect class="cls-3" x="31.7" y="4.5" width="5.9" height="5.94"/><rect class="cls-3" x="25.8" y="99.6" width="5.9" height="5.94"/><rect class="cls-2" x="25.8" y="10.4" width="5.9" height="5.94"/><rect class="cls-3" x="25.8" y="4.5" width="5.9" height="5.94"/><rect class="cls-3" x="19.8" y="99.6" width="5.9" height="5.94"/><rect class="cls-2" x="19.8" y="10.4" width="5.9" height="5.94"/><rect class="cls-3" x="19.8" y="4.5" width="5.9" height="5.94"/><rect class="cls-3" x="13.9" y="93.6" width="5.9" height="5.94"/><rect class="cls-2" x="13.9" y="16.4" width="5.9" height="5.94"/><rect class="cls-3" x="13.9" y="10.4" width="5.9" height="5.94"/><rect class="cls-3" x="7.9" y="87.7" width="5.9" height="5.94"/><rect class="cls-2" x="7.9" y="81.7" width="5.9" height="5.94"/><rect class="cls-2" x="7.9" y="75.8" width="5.9" height="5.94"/><rect class="cls-2" x="7.9" y="69.9" width="5.9" height="5.94"/><rect class="cls-2" x="7.9" y="63.9" width="5.9" height="5.94"/><rect class="cls-2" x="7.9" y="58" width="5.9" height="5.94"/><rect class="cls-2" x="7.9" y="52" width="5.9" height="5.94"/><rect class="cls-2" x="7.9" y="46.1" width="5.9" height="5.95"/><rect class="cls-2" x="7.9" y="40.1" width="5.9" height="5.94"/><rect class="cls-2" x="7.9" y="34.2" width="5.9" height="5.94"/><rect class="cls-2" x="7.9" y="28.3" width="5.9" height="5.94"/><rect class="cls-2" x="7.9" y="22.3" width="5.9" height="5.94"/><rect class="cls-3" x="7.9" y="16.4" width="5.9" height="5.94"/><rect class="cls-3" x="2" y="81.7" width="5.9" height="5.94"/><rect class="cls-3" x="2" y="75.8" width="5.9" height="5.94"/><rect class="cls-3" x="2" y="69.9" width="5.9" height="5.94"/><rect class="cls-3" x="2" y="63.9" width="5.9" height="5.94"/><rect class="cls-3" x="2" y="58" width="5.9" height="5.94"/><rect class="cls-3" x="2" y="52" width="5.9" height="5.94"/><rect class="cls-3" x="2" y="46.1" width="5.9" height="5.95"/><rect class="cls-3" x="2" y="40.1" width="5.9" height="5.94"/><rect class="cls-3" x="2" y="34.2" width="5.9" height="5.94"/><rect class="cls-3" x="2" y="28.3" width="5.9" height="5.94"/><rect class="cls-3" x="2" y="22.3" width="5.9" height="5.94"/><path class="cls-3" d="M67.7,65.6H63.9v4.1H43.6V65.8H39.5v-4h8.1v3.8h12V57.8h-16V53.7H39.5V45.6h3.9V41.5H59.6v3.9h4.1v4h-8V45.6H47.6v7.8H63.7v4.1h4Z"/><path class="cls-3" d="M91.7,45.4H83.8V69.7H75.7V45.6H67.5V41.5H91.7Z"/><path class="cls-3" d="M120.9,69.7h-8v-8h-12v8H92.8V49.6h3.8v-4h4.1V41.5h12.2v3.9h4v4h4Zm-8-12.1V49.4h-4.1V45.6h-4.1v4h-3.8v8Z"/><path class="cls-3" d="M153.2,57.6h-8.1v3.9h4.1v4.1h4v4.1h-12V65.9h-4V61.7h-4.1v8H125V41.5h24.2v3.9h4Zm-8.1-4.1V45.6h-12v12h8.1V53.5Z"/><path class="cls-3" d="M179.4,45.4h-7.9V69.7h-8.1V45.6h-8.1V41.5h24.1Z"/></svg>
