<svg id="Layer_1" data-name="Layer 1" xmlns="http://www.w3.org/2000/svg" width="460" height="80" viewBox="0 0 460 80"><defs><style>.cls-1{fill:#f2798f;}.cls-2{fill:#f2cece;}.cls-3{fill:#592e56;}</style></defs><title>timer_tom</title><rect class="cls-1" x="424.7" y="35.7" width="54" height="12.67" transform="translate(493.7 -409.7) rotate(90)"/><rect class="cls-1" x="225.5" y="-141.8" width="9" height="430.67" transform="translate(303.5 -156.5) rotate(90)"/><rect class="cls-1" x="225.5" y="-204.8" width="9" height="430.67" transform="translate(240.5 -219.5) rotate(90)"/><rect class="cls-1" x="-18.7" y="35.7" width="54" height="12.67" transform="translate(50.3 33.7) rotate(90)"/><rect class="cls-2" x="424.7" y="31.7" width="54" height="12.67" transform="translate(489.7 -413.7) rotate(90)"/><rect class="cls-2" x="225.5" y="-145.8" width="9" height="430.67" transform="translate(299.5 -160.5) rotate(90)"/><rect class="cls-2" x="225.5" y="-208.8" width="9" height="430.67" transform="translate(236.5 -223.5) rotate(90)"/><rect class="cls-2" x="-18.7" y="31.7" width="54" height="12.67" transform="translate(46.3 29.7) rotate(90)"/><rect class="cls-3" x="423.2" y="35.3" width="54" height="9.41" transform="translate(490.2 -410.2) rotate(90)"/><rect class="cls-3" x="225.3" y="-144.7" width="9" height="432.5" transform="translate(301.3 -158.3) rotate(90)"/><rect class="cls-3" x="225.3" y="-207.7" width="9" height="432.5" transform="translate(238.3 -221.3) rotate(90)"/><rect class="cls-3" x="-18.5" y="35.5" width="54" height="9" transform="translate(48.5 31.5) rotate(90)"/></svg>
