<svg xmlns="http://www.w3.org/2000/svg" width="450" height="450" viewBox="0 0 450 450"><defs><style>.cls-1{fill:#fff;}</style></defs><title>talebobbel</title><g id="Layer_6" data-name="Layer 6"><g id="Layer_5" data-name="Layer 5"><rect class="cls-1" x="94.4" y="273.49" width="16.43" height="16.43"/><rect class="cls-1" x="77.97" y="257.06" width="16.43" height="16.43"/><rect class="cls-1" x="160.13" y="289.92" width="16.43" height="16.43"/><rect class="cls-1" x="143.7" y="289.92" width="16.43" height="16.43"/><rect class="cls-1" x="127.26" y="289.92" width="16.44" height="16.43"/><rect class="cls-1" x="390.17" y="240.63" width="16.43" height="16.43"/><rect class="cls-1" x="390.17" y="207.76" width="16.43" height="16.44"/><rect class="cls-1" x="390.17" y="224.2" width="16.43" height="16.43"/><rect class="cls-1" x="357.3" y="273.49" width="16.44" height="16.43"/><rect class="cls-1" x="373.74" y="257.06" width="16.43" height="16.43"/><rect class="cls-1" x="373.74" y="322.78" width="16.43" height="16.44"/><rect class="cls-1" x="357.3" y="322.78" width="16.44" height="16.44"/><rect class="cls-1" x="340.87" y="289.92" width="16.43" height="16.43"/><rect class="cls-1" x="340.87" y="322.78" width="16.43" height="16.44"/><rect class="cls-1" x="357.3" y="158.47" width="16.44" height="16.43"/><rect class="cls-1" x="373.74" y="224.2" width="16.43" height="16.43"/><rect class="cls-1" x="373.74" y="207.76" width="16.43" height="16.44"/><rect class="cls-1" x="373.74" y="174.9" width="16.43" height="16.43"/><rect class="cls-1" x="373.74" y="191.33" width="16.43" height="16.43"/><rect class="cls-1" x="373.74" y="240.63" width="16.43" height="16.43"/><rect class="cls-1" x="357.3" y="240.63" width="16.44" height="16.43"/><rect class="cls-1" x="357.3" y="257.06" width="16.44" height="16.43"/><rect class="cls-1" x="340.87" y="273.49" width="16.43" height="16.43"/><rect class="cls-1" x="324.44" y="289.92" width="16.43" height="16.43"/><rect class="cls-1" x="357.3" y="306.35" width="16.44" height="16.43"/><rect class="cls-1" x="340.87" y="306.35" width="16.43" height="16.43"/><rect class="cls-1" x="324.44" y="306.35" width="16.43" height="16.43"/><rect class="cls-1" x="308.01" y="306.35" width="16.43" height="16.43"/><rect class="cls-1" x="308.01" y="289.92" width="16.43" height="16.43"/><rect class="cls-1" x="357.3" y="174.9" width="16.44" height="16.43"/><rect class="cls-1" x="357.3" y="191.33" width="16.44" height="16.43"/><rect class="cls-1" x="357.3" y="224.2" width="16.44" height="16.43"/><rect class="cls-1" x="357.3" y="207.76" width="16.44" height="16.44"/><rect class="cls-1" x="340.87" y="224.2" width="16.43" height="16.43"/><rect class="cls-1" x="340.87" y="207.76" width="16.43" height="16.44"/><rect class="cls-1" x="340.87" y="191.33" width="16.43" height="16.43"/><rect class="cls-1" x="340.87" y="240.63" width="16.43" height="16.43"/><rect class="cls-1" x="340.87" y="174.9" width="16.43" height="16.43"/><rect class="cls-1" x="340.87" y="158.47" width="16.43" height="16.43"/><rect class="cls-1" x="340.87" y="257.06" width="16.43" height="16.43"/><rect class="cls-1" x="324.44" y="224.2" width="16.43" height="16.43"/><rect class="cls-1" x="324.44" y="158.47" width="16.43" height="16.43"/><rect class="cls-1" x="324.44" y="174.9" width="16.43" height="16.43"/><rect class="cls-1" x="324.44" y="240.63" width="16.43" height="16.43"/><rect class="cls-1" x="324.44" y="273.49" width="16.43" height="16.43"/><rect class="cls-1" x="324.44" y="257.06" width="16.43" height="16.43"/><rect class="cls-1" x="324.44" y="191.33" width="16.43" height="16.43"/><rect class="cls-1" x="324.44" y="142.04" width="16.43" height="16.43"/><rect class="cls-1" x="324.44" y="207.76" width="16.43" height="16.44"/><rect class="cls-1" x="291.58" y="273.49" width="16.43" height="16.43"/><rect class="cls-1" x="308.01" y="191.33" width="16.43" height="16.43"/><rect class="cls-1" x="308.01" y="174.9" width="16.43" height="16.43"/><rect class="cls-1" x="308.01" y="142.04" width="16.43" height="16.43"/><rect class="cls-1" x="291.58" y="289.92" width="16.43" height="16.43"/><rect class="cls-1" x="308.01" y="273.49" width="16.43" height="16.43"/><rect class="cls-1" x="308.01" y="224.2" width="16.43" height="16.43"/><rect class="cls-1" x="308.01" y="207.76" width="16.43" height="16.44"/><rect class="cls-1" x="308.01" y="158.47" width="16.43" height="16.43"/><rect class="cls-1" x="308.01" y="257.06" width="16.43" height="16.43"/><rect class="cls-1" x="308.01" y="125.61" width="16.43" height="16.43"/><rect class="cls-1" x="291.58" y="257.06" width="16.43" height="16.43"/><rect class="cls-1" x="308.01" y="240.63" width="16.43" height="16.43"/><rect class="cls-1" x="275.15" y="289.92" width="16.43" height="16.43"/><rect class="cls-1" x="275.15" y="191.33" width="16.43" height="16.43"/><rect class="cls-1" x="275.15" y="142.04" width="16.43" height="16.43"/><rect class="cls-1" x="291.58" y="174.9" width="16.43" height="16.43"/><rect class="cls-1" x="291.58" y="142.04" width="16.43" height="16.43"/><rect class="cls-1" x="275.15" y="158.47" width="16.43" height="16.43"/><rect class="cls-1" x="275.15" y="240.63" width="16.43" height="16.43"/><rect class="cls-1" x="275.15" y="207.76" width="16.43" height="16.44"/><rect class="cls-1" x="291.58" y="240.63" width="16.43" height="16.43"/><rect class="cls-1" x="275.15" y="257.06" width="16.43" height="16.43"/><rect class="cls-1" x="291.58" y="224.2" width="16.43" height="16.43"/><rect class="cls-1" x="291.58" y="207.76" width="16.43" height="16.44"/><rect class="cls-1" x="291.58" y="191.33" width="16.43" height="16.43"/><rect class="cls-1" x="291.58" y="158.47" width="16.43" height="16.43"/><rect class="cls-1" x="275.15" y="273.49" width="16.43" height="16.43"/><rect class="cls-1" x="275.15" y="224.2" width="16.43" height="16.43"/><rect class="cls-1" x="275.15" y="174.9" width="16.43" height="16.43"/><rect class="cls-1" x="275.15" y="125.61" width="16.43" height="16.43"/><rect class="cls-1" x="291.58" y="125.61" width="16.43" height="16.43"/><rect class="cls-1" x="258.72" y="125.61" width="16.43" height="16.43"/><rect class="cls-1" x="258.72" y="174.9" width="16.43" height="16.43"/><rect class="cls-1" x="258.72" y="240.63" width="16.43" height="16.43"/><rect class="cls-1" x="258.72" y="273.49" width="16.43" height="16.43"/><rect class="cls-1" x="258.72" y="257.06" width="16.43" height="16.43"/><rect class="cls-1" x="258.72" y="207.76" width="16.43" height="16.44"/><rect class="cls-1" x="258.72" y="191.33" width="16.43" height="16.43"/><rect class="cls-1" x="258.72" y="289.92" width="16.43" height="16.43"/><rect class="cls-1" x="258.72" y="158.47" width="16.43" height="16.43"/><rect class="cls-1" x="258.72" y="224.2" width="16.43" height="16.43"/><rect class="cls-1" x="258.72" y="142.04" width="16.43" height="16.43"/><rect class="cls-1" x="242.28" y="174.9" width="16.44" height="16.43"/><rect class="cls-1" x="242.28" y="240.63" width="16.44" height="16.43"/><rect class="cls-1" x="242.28" y="224.2" width="16.44" height="16.43"/><rect class="cls-1" x="242.28" y="207.76" width="16.44" height="16.44"/><rect class="cls-1" x="242.28" y="142.04" width="16.44" height="16.43"/><rect class="cls-1" x="242.28" y="125.61" width="16.44" height="16.43"/><rect class="cls-1" x="242.28" y="158.47" width="16.44" height="16.43"/><rect class="cls-1" x="242.28" y="273.49" width="16.44" height="16.43"/><rect class="cls-1" x="242.28" y="257.06" width="16.44" height="16.43"/><rect class="cls-1" x="242.28" y="289.92" width="16.44" height="16.43"/><rect class="cls-1" x="242.28" y="191.33" width="16.44" height="16.43"/><rect class="cls-1" x="209.42" y="142.04" width="16.43" height="16.43"/><rect class="cls-1" x="209.42" y="224.2" width="16.43" height="16.43"/><rect class="cls-1" x="209.42" y="207.76" width="16.43" height="16.44"/><rect class="cls-1" x="209.42" y="191.33" width="16.43" height="16.43"/><rect class="cls-1" x="209.42" y="125.61" width="16.43" height="16.43"/><rect class="cls-1" x="209.42" y="174.9" width="16.43" height="16.43"/><rect class="cls-1" x="209.42" y="158.47" width="16.43" height="16.43"/><rect class="cls-1" x="192.99" y="207.76" width="16.43" height="16.44"/><rect class="cls-1" x="176.56" y="273.49" width="16.43" height="16.43"/><rect class="cls-1" x="192.99" y="224.2" width="16.43" height="16.43"/><rect class="cls-1" x="192.99" y="289.92" width="16.43" height="16.43"/><rect class="cls-1" x="192.99" y="240.63" width="16.43" height="16.43"/><rect class="cls-1" x="176.56" y="224.2" width="16.43" height="16.43"/><rect class="cls-1" x="192.99" y="125.61" width="16.43" height="16.43"/><rect class="cls-1" x="176.56" y="191.33" width="16.43" height="16.43"/><rect class="cls-1" x="192.99" y="273.49" width="16.43" height="16.43"/><rect class="cls-1" x="176.56" y="240.63" width="16.43" height="16.43"/><rect class="cls-1" x="192.99" y="174.9" width="16.43" height="16.43"/><rect class="cls-1" x="176.56" y="289.92" width="16.43" height="16.43"/><rect class="cls-1" x="192.99" y="142.04" width="16.43" height="16.43"/><rect class="cls-1" x="176.56" y="207.76" width="16.43" height="16.44"/><rect class="cls-1" x="192.99" y="191.33" width="16.43" height="16.43"/><rect class="cls-1" x="176.56" y="257.06" width="16.43" height="16.43"/><rect class="cls-1" x="192.99" y="257.06" width="16.43" height="16.43"/><rect class="cls-1" x="192.99" y="158.47" width="16.43" height="16.43"/><rect class="cls-1" x="176.56" y="158.47" width="16.43" height="16.43"/><rect class="cls-1" x="176.56" y="142.04" width="16.43" height="16.43"/><rect class="cls-1" x="176.56" y="125.61" width="16.43" height="16.43"/><rect class="cls-1" x="160.13" y="125.61" width="16.43" height="16.43"/><rect class="cls-1" x="160.13" y="191.33" width="16.43" height="16.43"/><rect class="cls-1" x="160.13" y="158.47" width="16.43" height="16.43"/><rect class="cls-1" x="160.13" y="142.04" width="16.43" height="16.43"/><rect class="cls-1" x="160.13" y="174.9" width="16.43" height="16.43"/><rect class="cls-1" x="160.13" y="273.49" width="16.43" height="16.43"/><rect class="cls-1" x="160.13" y="224.2" width="16.43" height="16.43"/><rect class="cls-1" x="160.13" y="207.76" width="16.43" height="16.44"/><rect class="cls-1" x="160.13" y="257.06" width="16.43" height="16.43"/><rect class="cls-1" x="160.13" y="240.63" width="16.43" height="16.43"/><rect class="cls-1" x="176.56" y="174.9" width="16.43" height="16.43"/><rect class="cls-1" x="143.7" y="158.47" width="16.43" height="16.43"/><rect class="cls-1" x="143.7" y="257.06" width="16.43" height="16.43"/><rect class="cls-1" x="143.7" y="207.76" width="16.43" height="16.44"/><rect class="cls-1" x="143.7" y="125.61" width="16.43" height="16.43"/><rect class="cls-1" x="143.7" y="224.2" width="16.43" height="16.43"/><rect class="cls-1" x="143.7" y="142.04" width="16.43" height="16.43"/><rect class="cls-1" x="143.7" y="240.63" width="16.43" height="16.43"/><rect class="cls-1" x="143.7" y="273.49" width="16.43" height="16.43"/><rect class="cls-1" x="143.7" y="174.9" width="16.43" height="16.43"/><rect class="cls-1" x="143.7" y="191.33" width="16.43" height="16.43"/><rect class="cls-1" x="127.26" y="191.33" width="16.44" height="16.43"/><rect class="cls-1" x="127.26" y="240.63" width="16.44" height="16.43"/><rect class="cls-1" x="127.26" y="158.47" width="16.44" height="16.43"/><rect class="cls-1" x="127.26" y="125.61" width="16.44" height="16.43"/><rect class="cls-1" x="127.26" y="207.76" width="16.44" height="16.44"/><rect class="cls-1" x="127.26" y="257.06" width="16.44" height="16.43"/><rect class="cls-1" x="127.26" y="273.49" width="16.44" height="16.43"/><rect class="cls-1" x="127.26" y="142.04" width="16.44" height="16.43"/><rect class="cls-1" x="127.26" y="174.9" width="16.44" height="16.43"/><rect class="cls-1" x="110.83" y="257.06" width="16.43" height="16.43"/><rect class="cls-1" x="110.83" y="240.63" width="16.43" height="16.43"/><rect class="cls-1" x="110.83" y="207.76" width="16.43" height="16.44"/><rect class="cls-1" x="110.83" y="224.2" width="16.43" height="16.43"/><rect class="cls-1" x="110.83" y="273.49" width="16.43" height="16.43"/><rect class="cls-1" x="110.83" y="174.9" width="16.43" height="16.43"/><rect class="cls-1" x="110.83" y="142.04" width="16.43" height="16.43"/><rect class="cls-1" x="94.4" y="257.06" width="16.43" height="16.43"/><rect class="cls-1" x="94.4" y="224.2" width="16.43" height="16.43"/><rect class="cls-1" x="94.4" y="191.33" width="16.43" height="16.43"/><rect class="cls-1" x="110.83" y="191.33" width="16.43" height="16.43"/><rect class="cls-1" x="110.83" y="158.47" width="16.43" height="16.43"/><rect class="cls-1" x="94.4" y="240.63" width="16.43" height="16.43"/><rect class="cls-1" x="94.4" y="174.9" width="16.43" height="16.43"/><rect class="cls-1" x="94.4" y="207.76" width="16.43" height="16.44"/><rect class="cls-1" x="77.97" y="207.76" width="16.43" height="16.44"/><rect class="cls-1" x="77.97" y="224.2" width="16.43" height="16.43"/><rect class="cls-1" x="77.97" y="174.9" width="16.43" height="16.43"/><rect class="cls-1" x="77.97" y="191.33" width="16.43" height="16.43"/><rect class="cls-1" x="94.4" y="158.47" width="16.43" height="16.43"/><rect class="cls-1" x="94.4" y="142.04" width="16.43" height="16.43"/><rect class="cls-1" x="77.97" y="158.47" width="16.43" height="16.43"/><rect class="cls-1" x="77.97" y="240.63" width="16.43" height="16.43"/><rect class="cls-1" x="61.54" y="191.33" width="16.43" height="16.43"/><rect class="cls-1" x="61.54" y="224.2" width="16.43" height="16.43"/><rect class="cls-1" x="61.54" y="207.76" width="16.43" height="16.44"/><rect class="cls-1" x="225.85" y="125.61" width="16.43" height="16.43"/><rect class="cls-1" x="225.85" y="273.49" width="16.43" height="16.43"/><rect class="cls-1" x="225.85" y="240.63" width="16.43" height="16.43"/><rect class="cls-1" x="225.85" y="142.04" width="16.43" height="16.43"/><rect class="cls-1" x="209.42" y="257.06" width="16.43" height="16.43"/><rect class="cls-1" x="209.42" y="289.92" width="16.43" height="16.43"/><rect class="cls-1" x="225.85" y="224.2" width="16.43" height="16.43"/><rect class="cls-1" x="209.42" y="240.63" width="16.43" height="16.43"/><rect class="cls-1" x="225.85" y="207.76" width="16.43" height="16.44"/><rect class="cls-1" x="209.42" y="273.49" width="16.43" height="16.43"/><rect class="cls-1" x="225.85" y="289.92" width="16.43" height="16.43"/><rect class="cls-1" x="225.85" y="158.47" width="16.43" height="16.43"/><rect class="cls-1" x="225.85" y="257.06" width="16.43" height="16.43"/><rect class="cls-1" x="225.85" y="191.33" width="16.43" height="16.43"/><rect class="cls-1" x="225.85" y="174.9" width="16.43" height="16.43"/><rect class="cls-1" x="127.26" y="224.2" width="16.44" height="16.43"/></g></g></svg>
