<svg xmlns="http://www.w3.org/2000/svg" width="1100" height="1100" viewBox="0 0 1100 1100"><defs><style>.cls-1{fill:#966;}.cls-2{fill:#824657;}.cls-3{fill:#80aba5;}.cls-4{fill:#5b6664;}.cls-5{fill:#b0cbc7;}.cls-6{fill:#a57878;}</style></defs><title>forgrund</title><g id="Layer_6" data-name="Layer 6"><g id="Layer_5" data-name="Layer 5"><rect class="cls-1" x="927.5" y="1079.01" width="21.18" height="21.18"/><rect class="cls-1" x="927.5" y="1057.83" width="21.18" height="21.18"/><rect class="cls-1" x="927.5" y="1036.66" width="21.18" height="21.17"/><rect class="cls-1" x="927.5" y="1015.48" width="21.18" height="21.18"/><rect class="cls-1" x="927.5" y="994.3" width="21.18" height="21.18"/><rect class="cls-1" x="927.5" y="973.13" width="21.18" height="21.17"/><rect class="cls-1" x="927.5" y="951.95" width="21.18" height="21.18"/><rect class="cls-1" x="927.5" y="930.77" width="21.18" height="21.18"/><rect class="cls-1" x="927.5" y="909.6" width="21.18" height="21.17"/><rect class="cls-2" x="906.32" y="1079.01" width="21.18" height="21.18"/><rect class="cls-2" x="906.32" y="1057.83" width="21.18" height="21.18"/><rect class="cls-2" x="906.32" y="1036.66" width="21.18" height="21.17"/><rect class="cls-2" x="906.32" y="1015.48" width="21.18" height="21.18"/><rect class="cls-1" x="906.32" y="994.3" width="21.18" height="21.18"/><rect class="cls-1" x="906.32" y="973.13" width="21.18" height="21.17"/><rect class="cls-1" x="906.32" y="951.95" width="21.18" height="21.18"/><rect class="cls-1" x="906.32" y="930.77" width="21.18" height="21.18"/><rect class="cls-1" x="906.32" y="909.6" width="21.18" height="21.17"/><rect class="cls-2" x="885.15" y="1079.01" width="21.17" height="21.18"/><rect class="cls-2" x="885.15" y="1057.83" width="21.17" height="21.18"/><rect class="cls-3" x="885.15" y="1036.66" width="21.17" height="21.17"/><rect class="cls-3" x="885.15" y="1015.48" width="21.17" height="21.18"/><rect class="cls-1" x="885.15" y="994.3" width="21.17" height="21.18"/><rect class="cls-1" x="885.15" y="973.13" width="21.17" height="21.17"/><rect class="cls-1" x="885.15" y="951.95" width="21.17" height="21.18"/><rect class="cls-1" x="885.15" y="930.77" width="21.17" height="21.18"/><rect class="cls-1" x="885.15" y="909.6" width="21.17" height="21.17"/><rect class="cls-3" x="885.15" y="888.42" width="21.17" height="21.18"/><rect class="cls-3" x="885.15" y="867.24" width="21.17" height="21.18"/><rect class="cls-3" x="885.15" y="846.07" width="21.17" height="21.17"/><rect class="cls-3" x="885.15" y="824.89" width="21.17" height="21.18"/><rect class="cls-3" x="885.15" y="803.72" width="21.17" height="21.17"/><rect class="cls-3" x="885.15" y="782.54" width="21.17" height="21.18"/><rect class="cls-3" x="885.15" y="761.36" width="21.17" height="21.18"/><rect class="cls-3" x="885.15" y="740.19" width="21.17" height="21.17"/><rect class="cls-3" x="885.15" y="719.01" width="21.17" height="21.18"/><rect class="cls-3" x="885.15" y="697.83" width="21.17" height="21.18"/><rect class="cls-3" x="885.15" y="676.66" width="21.17" height="21.17"/><rect class="cls-3" x="885.15" y="655.48" width="21.17" height="21.18"/><rect class="cls-3" x="885.15" y="634.3" width="21.17" height="21.18"/><rect class="cls-3" x="885.15" y="613.13" width="21.17" height="21.17"/><rect class="cls-3" x="885.15" y="591.95" width="21.17" height="21.18"/><rect class="cls-3" x="885.15" y="570.77" width="21.17" height="21.18"/><rect class="cls-3" x="885.15" y="549.6" width="21.17" height="21.17"/><rect class="cls-3" x="885.15" y="528.42" width="21.17" height="21.18"/><rect class="cls-3" x="885.15" y="507.24" width="21.17" height="21.18"/><rect class="cls-3" x="885.15" y="486.07" width="21.17" height="21.17"/><rect class="cls-3" x="885.15" y="464.89" width="21.17" height="21.18"/><rect class="cls-3" x="885.15" y="443.72" width="21.17" height="21.17"/><rect class="cls-3" x="885.15" y="422.54" width="21.17" height="21.18"/><rect class="cls-3" x="885.15" y="401.36" width="21.17" height="21.18"/><rect class="cls-3" x="885.15" y="380.19" width="21.17" height="21.17"/><rect class="cls-3" x="885.15" y="359.01" width="21.17" height="21.18"/><rect class="cls-3" x="885.15" y="337.83" width="21.17" height="21.18"/><rect class="cls-3" x="885.15" y="316.66" width="21.17" height="21.17"/><rect class="cls-3" x="885.15" y="295.48" width="21.17" height="21.18"/><rect class="cls-3" x="885.15" y="274.3" width="21.17" height="21.18"/><rect class="cls-3" x="885.15" y="253.13" width="21.17" height="21.17"/><rect class="cls-3" x="885.15" y="231.95" width="21.17" height="21.18"/><rect class="cls-3" x="885.15" y="210.77" width="21.17" height="21.18"/><rect class="cls-3" x="885.15" y="189.6" width="21.17" height="21.17"/><rect class="cls-3" x="885.15" y="168.42" width="21.17" height="21.18"/><rect class="cls-3" x="885.15" y="147.24" width="21.17" height="21.18"/><rect class="cls-3" x="885.15" y="126.07" width="21.17" height="21.17"/><rect class="cls-3" x="885.15" y="104.89" width="21.17" height="21.18"/><rect class="cls-3" x="885.15" y="83.72" width="21.17" height="21.17"/><rect class="cls-3" x="885.15" y="62.54" width="21.17" height="21.18"/><rect class="cls-2" x="863.97" y="1079.01" width="21.18" height="21.18"/><rect class="cls-2" x="863.97" y="1057.83" width="21.18" height="21.18"/><rect class="cls-3" x="863.97" y="1036.66" width="21.18" height="21.17"/><rect class="cls-3" x="863.97" y="1015.48" width="21.18" height="21.18"/><rect class="cls-1" x="863.97" y="994.3" width="21.18" height="21.18"/><rect class="cls-1" x="863.97" y="973.13" width="21.18" height="21.17"/><rect class="cls-1" x="863.97" y="951.95" width="21.18" height="21.18"/><rect class="cls-1" x="863.97" y="930.77" width="21.18" height="21.18"/><rect class="cls-1" x="863.97" y="909.6" width="21.18" height="21.17"/><rect class="cls-3" x="863.97" y="888.42" width="21.18" height="21.18"/><rect class="cls-3" x="863.97" y="867.24" width="21.18" height="21.18"/><rect class="cls-3" x="863.97" y="846.07" width="21.18" height="21.17"/><rect class="cls-3" x="863.97" y="824.89" width="21.18" height="21.18"/><rect class="cls-3" x="863.97" y="803.72" width="21.18" height="21.17"/><rect class="cls-3" x="863.97" y="782.54" width="21.18" height="21.18"/><rect class="cls-3" x="863.97" y="761.36" width="21.18" height="21.18"/><rect class="cls-3" x="863.97" y="740.19" width="21.18" height="21.17"/><rect class="cls-3" x="863.97" y="719.01" width="21.18" height="21.18"/><rect class="cls-3" x="863.97" y="697.83" width="21.18" height="21.18"/><rect class="cls-3" x="863.97" y="676.66" width="21.18" height="21.17"/><rect class="cls-3" x="863.97" y="655.48" width="21.18" height="21.18"/><rect class="cls-3" x="863.97" y="634.3" width="21.18" height="21.18"/><rect class="cls-3" x="863.97" y="613.13" width="21.18" height="21.17"/><rect class="cls-3" x="863.97" y="591.95" width="21.18" height="21.18"/><rect class="cls-3" x="863.97" y="570.77" width="21.18" height="21.18"/><rect class="cls-3" x="863.97" y="549.6" width="21.18" height="21.17"/><rect class="cls-3" x="863.97" y="528.42" width="21.18" height="21.18"/><rect class="cls-3" x="863.97" y="507.24" width="21.18" height="21.18"/><rect class="cls-3" x="863.97" y="486.07" width="21.18" height="21.17"/><rect class="cls-3" x="863.97" y="464.89" width="21.18" height="21.18"/><rect class="cls-3" x="863.97" y="443.72" width="21.18" height="21.17"/><rect class="cls-3" x="863.97" y="422.54" width="21.18" height="21.18"/><rect class="cls-3" x="863.97" y="401.36" width="21.18" height="21.18"/><rect class="cls-3" x="863.97" y="380.19" width="21.18" height="21.17"/><rect class="cls-3" x="863.97" y="359.01" width="21.18" height="21.18"/><rect class="cls-3" x="863.97" y="337.83" width="21.18" height="21.18"/><rect class="cls-3" x="863.97" y="316.66" width="21.18" height="21.17"/><rect class="cls-3" x="863.97" y="295.48" width="21.18" height="21.18"/><rect class="cls-3" x="863.97" y="274.3" width="21.18" height="21.18"/><rect class="cls-3" x="863.97" y="253.13" width="21.18" height="21.17"/><rect class="cls-3" x="863.97" y="231.95" width="21.18" height="21.18"/><rect class="cls-3" x="863.97" y="210.77" width="21.18" height="21.18"/><rect class="cls-3" x="863.97" y="189.6" width="21.18" height="21.17"/><rect class="cls-3" x="863.97" y="168.42" width="21.18" height="21.18"/><rect class="cls-3" x="863.97" y="147.24" width="21.18" height="21.18"/><rect class="cls-3" x="863.97" y="126.07" width="21.18" height="21.17"/><rect class="cls-3" x="863.97" y="104.89" width="21.18" height="21.18"/><rect class="cls-3" x="863.97" y="83.72" width="21.18" height="21.17"/><rect class="cls-3" x="863.97" y="62.54" width="21.18" height="21.18"/><rect class="cls-3" x="863.97" y="41.36" width="21.18" height="21.18"/><rect class="cls-3" x="842.8" y="1079.01" width="21.17" height="21.18"/><rect class="cls-3" x="842.8" y="1057.83" width="21.17" height="21.18"/><rect class="cls-3" x="842.8" y="1036.66" width="21.17" height="21.17"/><rect class="cls-3" x="842.8" y="1015.48" width="21.17" height="21.18"/><rect class="cls-1" x="842.8" y="994.3" width="21.17" height="21.18"/><rect class="cls-1" x="842.8" y="973.13" width="21.17" height="21.17"/><rect class="cls-1" x="842.8" y="951.95" width="21.17" height="21.18"/><rect class="cls-1" x="842.8" y="930.77" width="21.17" height="21.18"/><rect class="cls-1" x="842.8" y="909.6" width="21.17" height="21.17"/><rect class="cls-4" x="842.8" y="888.42" width="21.17" height="21.18"/><rect class="cls-4" x="842.8" y="867.24" width="21.17" height="21.18"/><rect class="cls-4" x="842.8" y="846.07" width="21.17" height="21.17"/><rect class="cls-4" x="842.8" y="824.89" width="21.17" height="21.18"/><rect class="cls-4" x="842.8" y="803.72" width="21.17" height="21.17"/><rect class="cls-4" x="842.8" y="782.54" width="21.17" height="21.18"/><rect class="cls-4" x="842.8" y="761.36" width="21.17" height="21.18"/><rect class="cls-4" x="842.8" y="740.19" width="21.17" height="21.17"/><rect class="cls-4" x="842.8" y="719.01" width="21.17" height="21.18"/><rect class="cls-4" x="842.8" y="697.83" width="21.17" height="21.18"/><rect class="cls-4" x="842.8" y="676.66" width="21.17" height="21.17"/><rect class="cls-4" x="842.8" y="655.48" width="21.17" height="21.18"/><rect class="cls-4" x="842.8" y="634.3" width="21.17" height="21.18"/><rect class="cls-4" x="842.8" y="613.13" width="21.17" height="21.17"/><rect class="cls-4" x="842.8" y="591.95" width="21.17" height="21.18"/><rect class="cls-4" x="842.8" y="570.77" width="21.17" height="21.18"/><rect class="cls-4" x="842.8" y="549.6" width="21.17" height="21.17"/><rect class="cls-4" x="842.8" y="528.42" width="21.17" height="21.18"/><rect class="cls-4" x="842.8" y="507.24" width="21.17" height="21.18"/><rect class="cls-4" x="842.8" y="486.07" width="21.17" height="21.17"/><rect class="cls-4" x="842.8" y="464.89" width="21.17" height="21.18"/><rect class="cls-4" x="842.8" y="443.72" width="21.17" height="21.17"/><rect class="cls-4" x="842.8" y="422.54" width="21.17" height="21.18"/><rect class="cls-4" x="842.8" y="401.36" width="21.17" height="21.18"/><rect class="cls-4" x="842.8" y="380.19" width="21.17" height="21.17"/><rect class="cls-4" x="842.8" y="359.01" width="21.17" height="21.18"/><rect class="cls-4" x="842.8" y="337.83" width="21.17" height="21.18"/><rect class="cls-4" x="842.8" y="316.66" width="21.17" height="21.17"/><rect class="cls-4" x="842.8" y="295.48" width="21.17" height="21.18"/><rect class="cls-4" x="842.8" y="274.3" width="21.17" height="21.18"/><rect class="cls-4" x="842.8" y="253.13" width="21.17" height="21.17"/><rect class="cls-4" x="842.8" y="231.95" width="21.17" height="21.18"/><rect class="cls-4" x="842.8" y="210.77" width="21.17" height="21.18"/><rect class="cls-4" x="842.8" y="189.6" width="21.17" height="21.17"/><rect class="cls-4" x="842.8" y="168.42" width="21.17" height="21.18"/><rect class="cls-4" x="842.8" y="147.24" width="21.17" height="21.18"/><rect class="cls-4" x="842.8" y="126.07" width="21.17" height="21.17"/><rect class="cls-4" x="842.8" y="104.89" width="21.17" height="21.18"/><rect class="cls-3" x="842.8" y="83.72" width="21.17" height="21.17"/><rect class="cls-3" x="842.8" y="62.54" width="21.17" height="21.18"/><rect class="cls-3" x="842.8" y="41.36" width="21.17" height="21.18"/><rect class="cls-5" x="842.8" y="20.19" width="21.17" height="21.17"/><rect class="cls-3" x="821.62" y="1079.01" width="21.18" height="21.18"/><rect class="cls-3" x="821.62" y="1057.83" width="21.18" height="21.18"/><rect class="cls-3" x="821.62" y="1036.66" width="21.18" height="21.17"/><rect class="cls-3" x="821.62" y="1015.48" width="21.18" height="21.18"/><rect class="cls-1" x="821.62" y="994.3" width="21.18" height="21.18"/><rect class="cls-1" x="821.62" y="973.13" width="21.18" height="21.17"/><rect class="cls-6" x="821.62" y="951.95" width="21.18" height="21.18"/><rect class="cls-6" x="821.62" y="930.77" width="21.18" height="21.18"/><rect class="cls-6" x="821.62" y="909.6" width="21.18" height="21.17"/><rect class="cls-4" x="821.62" y="104.89" width="21.18" height="21.18"/><rect class="cls-3" x="821.62" y="83.72" width="21.18" height="21.17"/><rect class="cls-3" x="821.62" y="62.54" width="21.18" height="21.18"/><rect class="cls-3" x="821.62" y="41.36" width="21.18" height="21.18"/><rect class="cls-5" x="821.62" y="20.19" width="21.18" height="21.17"/><rect class="cls-3" x="800.44" y="1079.01" width="21.18" height="21.18"/><rect class="cls-3" x="800.44" y="1057.83" width="21.18" height="21.18"/><rect class="cls-3" x="800.44" y="1036.66" width="21.18" height="21.17"/><rect class="cls-3" x="800.44" y="1015.48" width="21.18" height="21.18"/><rect class="cls-1" x="800.44" y="994.3" width="21.18" height="21.18"/><rect class="cls-1" x="800.44" y="973.13" width="21.18" height="21.17"/><rect class="cls-6" x="800.44" y="951.95" width="21.18" height="21.18"/><rect class="cls-6" x="800.44" y="930.77" width="21.18" height="21.18"/><rect class="cls-6" x="800.44" y="909.6" width="21.18" height="21.17"/><rect class="cls-4" x="800.44" y="104.89" width="21.18" height="21.18"/><rect class="cls-3" x="800.44" y="83.72" width="21.18" height="21.17"/><rect class="cls-3" x="800.44" y="62.54" width="21.18" height="21.18"/><rect class="cls-3" x="800.44" y="41.36" width="21.18" height="21.18"/><rect class="cls-5" x="800.44" y="20.19" width="21.18" height="21.17"/><rect class="cls-3" x="779.27" y="1079.01" width="21.17" height="21.18"/><rect class="cls-3" x="779.27" y="1057.83" width="21.17" height="21.18"/><rect class="cls-3" x="779.27" y="1036.66" width="21.17" height="21.17"/><rect class="cls-3" x="779.27" y="1015.48" width="21.17" height="21.18"/><rect class="cls-1" x="779.27" y="994.3" width="21.17" height="21.18"/><rect class="cls-1" x="779.27" y="973.13" width="21.17" height="21.17"/><rect class="cls-6" x="779.27" y="951.95" width="21.17" height="21.18"/><rect class="cls-6" x="779.27" y="930.77" width="21.17" height="21.18"/><rect class="cls-6" x="779.27" y="909.6" width="21.17" height="21.17"/><rect class="cls-4" x="779.27" y="104.89" width="21.17" height="21.18"/><rect class="cls-3" x="779.27" y="83.72" width="21.17" height="21.17"/><rect class="cls-3" x="779.27" y="62.54" width="21.17" height="21.18"/><rect class="cls-3" x="779.27" y="41.36" width="21.17" height="21.18"/><rect class="cls-5" x="779.27" y="20.19" width="21.17" height="21.17"/><rect class="cls-3" x="758.09" y="1079.01" width="21.18" height="21.18"/><rect class="cls-3" x="758.09" y="1057.83" width="21.18" height="21.18"/><rect class="cls-3" x="758.09" y="1036.66" width="21.18" height="21.17"/><rect class="cls-3" x="758.09" y="1015.48" width="21.18" height="21.18"/><rect class="cls-1" x="758.09" y="994.3" width="21.18" height="21.18"/><rect class="cls-1" x="758.09" y="973.13" width="21.18" height="21.17"/><rect class="cls-6" x="758.09" y="951.95" width="21.18" height="21.18"/><rect class="cls-6" x="758.09" y="930.77" width="21.18" height="21.18"/><rect class="cls-6" x="758.09" y="909.6" width="21.18" height="21.17"/><rect class="cls-4" x="758.09" y="104.89" width="21.18" height="21.18"/><rect class="cls-3" x="758.09" y="83.72" width="21.18" height="21.17"/><rect class="cls-3" x="758.09" y="62.54" width="21.18" height="21.18"/><rect class="cls-3" x="758.09" y="41.36" width="21.18" height="21.18"/><rect class="cls-5" x="758.09" y="20.19" width="21.18" height="21.17"/><rect class="cls-3" x="736.91" y="1079.01" width="21.18" height="21.18"/><rect class="cls-3" x="736.91" y="1057.83" width="21.18" height="21.18"/><rect class="cls-3" x="736.91" y="1036.66" width="21.18" height="21.17"/><rect class="cls-3" x="736.91" y="1015.48" width="21.18" height="21.18"/><rect class="cls-3" x="736.91" y="994.3" width="21.18" height="21.18"/><rect class="cls-1" x="736.91" y="973.13" width="21.18" height="21.17"/><rect class="cls-1" x="736.91" y="951.95" width="21.18" height="21.18"/><rect class="cls-6" x="736.91" y="930.77" width="21.18" height="21.18"/><rect class="cls-6" x="736.91" y="909.6" width="21.18" height="21.17"/><rect class="cls-4" x="736.91" y="104.89" width="21.18" height="21.18"/><rect class="cls-3" x="736.91" y="83.72" width="21.18" height="21.17"/><rect class="cls-3" x="736.91" y="62.54" width="21.18" height="21.18"/><rect class="cls-3" x="736.91" y="41.36" width="21.18" height="21.18"/><rect class="cls-5" x="736.91" y="20.19" width="21.18" height="21.17"/><rect class="cls-3" x="715.74" y="1079.01" width="21.17" height="21.18"/><rect class="cls-3" x="715.74" y="1057.83" width="21.17" height="21.18"/><rect class="cls-3" x="715.74" y="1036.66" width="21.17" height="21.17"/><rect class="cls-3" x="715.74" y="1015.48" width="21.17" height="21.18"/><rect class="cls-3" x="715.74" y="994.3" width="21.17" height="21.18"/><rect class="cls-4" x="715.74" y="973.13" width="21.17" height="21.17"/><rect class="cls-1" x="715.74" y="951.95" width="21.17" height="21.18"/><rect class="cls-6" x="715.74" y="930.77" width="21.17" height="21.18"/><rect class="cls-6" x="715.74" y="909.6" width="21.17" height="21.17"/><rect class="cls-4" x="715.74" y="104.89" width="21.17" height="21.18"/><rect class="cls-3" x="715.74" y="83.72" width="21.17" height="21.17"/><rect class="cls-3" x="715.74" y="62.54" width="21.17" height="21.18"/><rect class="cls-3" x="715.74" y="41.36" width="21.17" height="21.18"/><rect class="cls-5" x="715.74" y="20.19" width="21.17" height="21.17"/><rect class="cls-3" x="694.56" y="1079.01" width="21.18" height="21.18"/><rect class="cls-3" x="694.56" y="1057.83" width="21.18" height="21.18"/><rect class="cls-3" x="694.56" y="1036.66" width="21.18" height="21.17"/><rect class="cls-3" x="694.56" y="1015.48" width="21.18" height="21.18"/><rect class="cls-3" x="694.56" y="994.3" width="21.18" height="21.18"/><rect class="cls-4" x="694.56" y="973.13" width="21.18" height="21.17"/><rect class="cls-4" x="694.56" y="104.89" width="21.18" height="21.18"/><rect class="cls-3" x="694.56" y="83.72" width="21.18" height="21.17"/><rect class="cls-3" x="694.56" y="62.54" width="21.18" height="21.18"/><rect class="cls-3" x="694.56" y="41.36" width="21.18" height="21.18"/><rect class="cls-5" x="694.56" y="20.19" width="21.18" height="21.17"/><rect class="cls-3" x="673.38" y="1079.01" width="21.18" height="21.18"/><rect class="cls-3" x="673.38" y="1057.83" width="21.18" height="21.18"/><rect class="cls-4" x="673.38" y="1036.66" width="21.18" height="21.17"/><rect class="cls-3" x="673.38" y="1015.48" width="21.18" height="21.18"/><rect class="cls-3" x="673.38" y="994.3" width="21.18" height="21.18"/><rect class="cls-4" x="673.38" y="973.13" width="21.18" height="21.17"/><rect class="cls-4" x="673.38" y="104.89" width="21.18" height="21.18"/><rect class="cls-3" x="673.38" y="83.72" width="21.18" height="21.17"/><rect class="cls-3" x="673.38" y="62.54" width="21.18" height="21.18"/><rect class="cls-3" x="673.38" y="41.36" width="21.18" height="21.18"/><rect class="cls-5" x="673.38" y="20.19" width="21.18" height="21.17"/><rect class="cls-3" x="652.21" y="1079.01" width="21.17" height="21.18"/><rect class="cls-4" x="652.21" y="1057.83" width="21.17" height="21.18"/><rect class="cls-4" x="652.21" y="1036.66" width="21.17" height="21.17"/><rect class="cls-4" x="652.21" y="1015.48" width="21.17" height="21.18"/><rect class="cls-3" x="652.21" y="994.3" width="21.17" height="21.18"/><rect class="cls-4" x="652.21" y="973.13" width="21.17" height="21.17"/><rect class="cls-4" x="652.21" y="104.89" width="21.17" height="21.18"/><rect class="cls-3" x="652.21" y="83.72" width="21.17" height="21.17"/><rect class="cls-3" x="652.21" y="62.54" width="21.17" height="21.18"/><rect class="cls-4" x="652.21" y="41.36" width="21.17" height="21.18"/><rect class="cls-5" x="652.21" y="20.19" width="21.17" height="21.17"/><rect class="cls-3" x="631.03" y="1079.01" width="21.18" height="21.18"/><rect class="cls-4" x="631.03" y="1057.83" width="21.18" height="21.18"/><rect class="cls-4" x="631.03" y="1036.66" width="21.18" height="21.17"/><rect class="cls-4" x="631.03" y="1015.48" width="21.18" height="21.18"/><rect class="cls-3" x="631.03" y="994.3" width="21.18" height="21.18"/><rect class="cls-4" x="631.03" y="973.13" width="21.18" height="21.17"/><rect class="cls-4" x="631.03" y="104.89" width="21.18" height="21.18"/><rect class="cls-3" x="631.03" y="83.72" width="21.18" height="21.17"/><rect class="cls-3" x="631.03" y="62.54" width="21.18" height="21.18"/><rect class="cls-4" x="631.03" y="41.36" width="21.18" height="21.18"/><rect class="cls-5" x="631.03" y="20.19" width="21.18" height="21.17"/><rect class="cls-3" x="609.85" y="1079.01" width="21.18" height="21.18"/><rect class="cls-4" x="609.85" y="1057.83" width="21.18" height="21.18"/><rect class="cls-3" x="609.85" y="1036.66" width="21.18" height="21.17"/><rect class="cls-4" x="609.85" y="1015.48" width="21.18" height="21.18"/><rect class="cls-3" x="609.85" y="994.3" width="21.18" height="21.18"/><rect class="cls-4" x="609.85" y="973.13" width="21.18" height="21.17"/><rect class="cls-4" x="609.85" y="104.89" width="21.18" height="21.18"/><rect class="cls-3" x="609.85" y="83.72" width="21.18" height="21.17"/><rect class="cls-3" x="609.85" y="62.54" width="21.18" height="21.18"/><rect class="cls-4" x="609.85" y="41.36" width="21.18" height="21.18"/><rect class="cls-5" x="609.85" y="20.19" width="21.18" height="21.17"/><rect class="cls-3" x="588.68" y="1079.01" width="21.17" height="21.18"/><rect class="cls-4" x="588.68" y="1057.83" width="21.17" height="21.18"/><rect class="cls-5" x="588.68" y="1036.66" width="21.17" height="21.17"/><rect class="cls-4" x="588.68" y="1015.48" width="21.17" height="21.18"/><rect class="cls-3" x="588.68" y="994.3" width="21.17" height="21.18"/><rect class="cls-4" x="588.68" y="973.13" width="21.17" height="21.17"/><rect class="cls-4" x="588.68" y="104.89" width="21.17" height="21.18"/><rect class="cls-3" x="588.68" y="83.72" width="21.17" height="21.17"/><rect class="cls-3" x="588.68" y="62.54" width="21.17" height="21.18"/><rect class="cls-4" x="588.68" y="41.36" width="21.17" height="21.18"/><rect class="cls-5" x="588.68" y="20.19" width="21.17" height="21.17"/><rect class="cls-3" x="567.5" y="1079.01" width="21.18" height="21.18"/><rect class="cls-4" x="567.5" y="1057.83" width="21.18" height="21.18"/><rect class="cls-5" x="567.5" y="1036.66" width="21.18" height="21.17"/><rect class="cls-4" x="567.5" y="1015.48" width="21.18" height="21.18"/><rect class="cls-3" x="567.5" y="994.3" width="21.18" height="21.18"/><rect class="cls-4" x="567.5" y="973.13" width="21.18" height="21.17"/><rect class="cls-4" x="567.5" y="104.89" width="21.18" height="21.18"/><rect class="cls-3" x="567.5" y="83.72" width="21.18" height="21.17"/><rect class="cls-3" x="567.5" y="62.54" width="21.18" height="21.18"/><rect class="cls-4" x="567.5" y="41.36" width="21.18" height="21.18"/><rect class="cls-5" x="567.5" y="20.19" width="21.18" height="21.17"/><rect class="cls-3" x="546.32" y="1079.01" width="21.18" height="21.18"/><rect class="cls-4" x="546.32" y="1057.83" width="21.18" height="21.18"/><rect class="cls-4" x="546.32" y="1036.66" width="21.18" height="21.17"/><rect class="cls-4" x="546.32" y="1015.48" width="21.18" height="21.18"/><rect class="cls-3" x="546.32" y="994.3" width="21.18" height="21.18"/><rect class="cls-4" x="546.32" y="973.13" width="21.18" height="21.17"/><rect class="cls-4" x="546.32" y="104.89" width="21.18" height="21.18"/><rect class="cls-3" x="546.32" y="83.72" width="21.18" height="21.17"/><rect class="cls-3" x="546.32" y="62.54" width="21.18" height="21.18"/><rect class="cls-3" x="546.32" y="41.36" width="21.18" height="21.18"/><rect class="cls-5" x="546.32" y="20.19" width="21.18" height="21.17"/><rect class="cls-3" x="525.15" y="1079.01" width="21.17" height="21.18"/><rect class="cls-4" x="525.15" y="1057.83" width="21.17" height="21.18"/><rect class="cls-4" x="525.15" y="1036.66" width="21.17" height="21.17"/><rect class="cls-4" x="525.15" y="1015.48" width="21.17" height="21.18"/><rect class="cls-3" x="525.15" y="994.3" width="21.17" height="21.18"/><rect class="cls-4" x="525.15" y="973.13" width="21.17" height="21.17"/><rect class="cls-4" x="525.15" y="104.89" width="21.17" height="21.18"/><rect class="cls-3" x="525.15" y="83.72" width="21.17" height="21.17"/><rect class="cls-3" x="525.15" y="62.54" width="21.17" height="21.18"/><rect class="cls-3" x="525.15" y="41.36" width="21.17" height="21.18"/><rect class="cls-5" x="525.15" y="20.19" width="21.17" height="21.17"/><rect class="cls-3" x="503.97" y="1079.01" width="21.18" height="21.18"/><rect class="cls-3" x="503.97" y="1057.83" width="21.18" height="21.18"/><rect class="cls-4" x="503.97" y="1036.66" width="21.18" height="21.17"/><rect class="cls-3" x="503.97" y="1015.48" width="21.18" height="21.18"/><rect class="cls-3" x="503.97" y="994.3" width="21.18" height="21.18"/><rect class="cls-4" x="503.97" y="973.13" width="21.18" height="21.17"/><rect class="cls-4" x="503.97" y="104.89" width="21.18" height="21.18"/><rect class="cls-3" x="503.97" y="83.72" width="21.18" height="21.17"/><rect class="cls-3" x="503.97" y="62.54" width="21.18" height="21.18"/><rect class="cls-4" x="503.97" y="41.36" width="21.18" height="21.18"/><rect class="cls-5" x="503.97" y="20.19" width="21.18" height="21.17"/><rect class="cls-3" x="482.8" y="1079.01" width="21.17" height="21.18"/><rect class="cls-3" x="482.8" y="1057.83" width="21.17" height="21.18"/><rect class="cls-3" x="482.8" y="1036.66" width="21.17" height="21.17"/><rect class="cls-3" x="482.8" y="1015.48" width="21.17" height="21.18"/><rect class="cls-3" x="482.8" y="994.3" width="21.17" height="21.18"/><rect class="cls-4" x="482.8" y="973.13" width="21.17" height="21.17"/><rect class="cls-4" x="482.8" y="104.89" width="21.17" height="21.18"/><rect class="cls-3" x="482.8" y="83.72" width="21.17" height="21.17"/><rect class="cls-3" x="482.8" y="62.54" width="21.17" height="21.18"/><rect class="cls-3" x="482.8" y="41.36" width="21.17" height="21.18"/><rect class="cls-5" x="482.8" y="20.19" width="21.17" height="21.17"/><rect class="cls-3" x="461.62" y="1079.01" width="21.18" height="21.18"/><rect class="cls-3" x="461.62" y="1057.83" width="21.18" height="21.18"/><rect class="cls-3" x="461.62" y="1036.66" width="21.18" height="21.17"/><rect class="cls-3" x="461.62" y="1015.48" width="21.18" height="21.18"/><rect class="cls-3" x="461.62" y="994.3" width="21.18" height="21.18"/><rect class="cls-4" x="461.62" y="973.13" width="21.18" height="21.17"/><rect class="cls-4" x="461.62" y="104.89" width="21.18" height="21.18"/><rect class="cls-3" x="461.62" y="83.72" width="21.18" height="21.17"/><rect class="cls-3" x="461.62" y="62.54" width="21.18" height="21.18"/><rect class="cls-3" x="461.62" y="41.36" width="21.18" height="21.18"/><rect class="cls-5" x="461.62" y="20.19" width="21.18" height="21.17"/><rect class="cls-3" x="440.44" y="1079.01" width="21.18" height="21.18"/><rect class="cls-3" x="440.44" y="1057.83" width="21.18" height="21.18"/><rect class="cls-3" x="440.44" y="1036.66" width="21.18" height="21.17"/><rect class="cls-3" x="440.44" y="1015.48" width="21.18" height="21.18"/><rect class="cls-3" x="440.44" y="994.3" width="21.18" height="21.18"/><rect class="cls-4" x="440.44" y="973.13" width="21.18" height="21.17"/><rect class="cls-4" x="440.44" y="104.89" width="21.18" height="21.18"/><rect class="cls-3" x="440.44" y="83.72" width="21.18" height="21.17"/><rect class="cls-3" x="440.44" y="62.54" width="21.18" height="21.18"/><rect class="cls-3" x="440.44" y="41.36" width="21.18" height="21.18"/><rect class="cls-5" x="440.44" y="20.19" width="21.18" height="21.17"/><rect class="cls-3" x="419.27" y="1079.01" width="21.17" height="21.18"/><rect class="cls-3" x="419.27" y="1057.83" width="21.17" height="21.18"/><rect class="cls-3" x="419.27" y="1036.66" width="21.17" height="21.17"/><rect class="cls-3" x="419.27" y="1015.48" width="21.17" height="21.18"/><rect class="cls-3" x="419.27" y="994.3" width="21.17" height="21.18"/><rect class="cls-4" x="419.27" y="973.13" width="21.17" height="21.17"/><rect class="cls-4" x="419.27" y="104.89" width="21.17" height="21.18"/><rect class="cls-3" x="419.27" y="83.72" width="21.17" height="21.17"/><rect class="cls-3" x="419.27" y="62.54" width="21.17" height="21.18"/><rect class="cls-3" x="419.27" y="41.36" width="21.17" height="21.18"/><rect class="cls-5" x="419.27" y="20.19" width="21.17" height="21.17"/><rect class="cls-3" x="398.09" y="1079.01" width="21.18" height="21.18"/><rect class="cls-3" x="398.09" y="1057.83" width="21.18" height="21.18"/><rect class="cls-3" x="398.09" y="1036.66" width="21.18" height="21.17"/><rect class="cls-3" x="398.09" y="1015.48" width="21.18" height="21.18"/><rect class="cls-3" x="398.09" y="994.3" width="21.18" height="21.18"/><rect class="cls-4" x="398.09" y="973.13" width="21.18" height="21.17"/><rect class="cls-4" x="398.09" y="104.89" width="21.18" height="21.18"/><rect class="cls-3" x="398.09" y="83.72" width="21.18" height="21.17"/><rect class="cls-3" x="398.09" y="62.54" width="21.18" height="21.18"/><rect class="cls-3" x="398.09" y="41.36" width="21.18" height="21.18"/><rect class="cls-5" x="398.09" y="20.19" width="21.18" height="21.17"/><rect class="cls-3" x="376.91" y="1079.01" width="21.18" height="21.18"/><rect class="cls-3" x="376.91" y="1057.83" width="21.18" height="21.18"/><rect class="cls-3" x="376.91" y="1036.66" width="21.18" height="21.17"/><rect class="cls-3" x="376.91" y="1015.48" width="21.18" height="21.18"/><rect class="cls-3" x="376.91" y="994.3" width="21.18" height="21.18"/><rect class="cls-4" x="376.91" y="973.13" width="21.18" height="21.17"/><rect class="cls-4" x="376.91" y="104.89" width="21.18" height="21.18"/><rect class="cls-3" x="376.91" y="83.72" width="21.18" height="21.17"/><rect class="cls-3" x="376.91" y="62.54" width="21.18" height="21.18"/><rect class="cls-3" x="376.91" y="41.36" width="21.18" height="21.18"/><rect class="cls-5" x="376.91" y="20.19" width="21.18" height="21.17"/><rect class="cls-3" x="355.74" y="1079.01" width="21.17" height="21.18"/><rect class="cls-3" x="355.74" y="1057.83" width="21.17" height="21.18"/><rect class="cls-3" x="355.74" y="1036.66" width="21.17" height="21.17"/><rect class="cls-3" x="355.74" y="1015.48" width="21.17" height="21.18"/><rect class="cls-3" x="355.74" y="994.3" width="21.17" height="21.18"/><rect class="cls-4" x="355.74" y="973.13" width="21.17" height="21.17"/><rect class="cls-4" x="355.74" y="104.89" width="21.17" height="21.18"/><rect class="cls-3" x="355.74" y="83.72" width="21.17" height="21.17"/><rect class="cls-3" x="355.74" y="62.54" width="21.17" height="21.18"/><rect class="cls-3" x="355.74" y="41.36" width="21.17" height="21.18"/><rect class="cls-5" x="355.74" y="20.19" width="21.17" height="21.17"/><rect class="cls-3" x="334.56" y="1079.01" width="21.18" height="21.18"/><rect class="cls-3" x="334.56" y="1057.83" width="21.18" height="21.18"/><rect class="cls-3" x="334.56" y="1036.66" width="21.18" height="21.17"/><rect class="cls-3" x="334.56" y="1015.48" width="21.18" height="21.18"/><rect class="cls-3" x="334.56" y="994.3" width="21.18" height="21.18"/><rect class="cls-4" x="334.56" y="973.13" width="21.18" height="21.17"/><rect class="cls-4" x="334.56" y="104.89" width="21.18" height="21.18"/><rect class="cls-3" x="334.56" y="83.72" width="21.18" height="21.17"/><rect class="cls-3" x="334.56" y="62.54" width="21.18" height="21.18"/><rect class="cls-3" x="334.56" y="41.36" width="21.18" height="21.18"/><rect class="cls-5" x="334.56" y="20.19" width="21.18" height="21.17"/><rect class="cls-3" x="313.38" y="1079.01" width="21.18" height="21.18"/><rect class="cls-3" x="313.38" y="1057.83" width="21.18" height="21.18"/><rect class="cls-3" x="313.38" y="1036.66" width="21.18" height="21.17"/><rect class="cls-3" x="313.38" y="1015.48" width="21.18" height="21.18"/><rect class="cls-3" x="313.38" y="994.3" width="21.18" height="21.18"/><rect class="cls-4" x="313.38" y="973.13" width="21.18" height="21.17"/><rect class="cls-4" x="313.38" y="951.95" width="21.18" height="21.18"/><rect class="cls-4" x="313.38" y="930.77" width="21.18" height="21.18"/><rect class="cls-4" x="313.38" y="909.6" width="21.18" height="21.17"/><rect class="cls-4" x="313.38" y="888.42" width="21.18" height="21.18"/><rect class="cls-2" x="313.38" y="867.24" width="21.18" height="21.18"/><rect class="cls-2" x="313.38" y="846.07" width="21.18" height="21.17"/><rect class="cls-2" x="313.38" y="824.89" width="21.18" height="21.18"/><rect class="cls-4" x="313.38" y="803.72" width="21.18" height="21.17"/><rect class="cls-4" x="313.38" y="782.54" width="21.18" height="21.18"/><rect class="cls-4" x="313.38" y="761.36" width="21.18" height="21.18"/><rect class="cls-2" x="313.38" y="740.19" width="21.18" height="21.17"/><rect class="cls-2" x="313.38" y="719.01" width="21.18" height="21.18"/><rect class="cls-4" x="313.38" y="697.83" width="21.18" height="21.18"/><rect class="cls-4" x="313.38" y="676.66" width="21.18" height="21.17"/><rect class="cls-4" x="313.38" y="655.48" width="21.18" height="21.18"/><rect class="cls-4" x="313.38" y="634.3" width="21.18" height="21.18"/><rect class="cls-4" x="313.38" y="613.13" width="21.18" height="21.17"/><rect class="cls-4" x="313.38" y="591.95" width="21.18" height="21.18"/><rect class="cls-4" x="313.38" y="570.77" width="21.18" height="21.18"/><rect class="cls-4" x="313.38" y="549.6" width="21.18" height="21.17"/><rect class="cls-4" x="313.38" y="528.42" width="21.18" height="21.18"/><rect class="cls-4" x="313.38" y="507.24" width="21.18" height="21.18"/><rect class="cls-4" x="313.38" y="486.07" width="21.18" height="21.17"/><rect class="cls-4" x="313.38" y="464.89" width="21.18" height="21.18"/><rect class="cls-4" x="313.38" y="443.72" width="21.18" height="21.17"/><rect class="cls-4" x="313.38" y="422.54" width="21.18" height="21.18"/><rect class="cls-4" x="313.38" y="401.36" width="21.18" height="21.18"/><rect class="cls-4" x="313.38" y="380.19" width="21.18" height="21.17"/><rect class="cls-4" x="313.38" y="359.01" width="21.18" height="21.18"/><rect class="cls-4" x="313.38" y="337.83" width="21.18" height="21.18"/><rect class="cls-4" x="313.38" y="316.66" width="21.18" height="21.17"/><rect class="cls-4" x="313.38" y="295.48" width="21.18" height="21.18"/><rect class="cls-4" x="313.38" y="274.3" width="21.18" height="21.18"/><rect class="cls-4" x="313.38" y="253.13" width="21.18" height="21.17"/><rect class="cls-4" x="313.38" y="231.95" width="21.18" height="21.18"/><rect class="cls-4" x="313.38" y="210.77" width="21.18" height="21.18"/><rect class="cls-4" x="313.38" y="189.6" width="21.18" height="21.17"/><rect class="cls-4" x="313.38" y="168.42" width="21.18" height="21.18"/><rect class="cls-4" x="313.38" y="147.24" width="21.18" height="21.18"/><rect class="cls-4" x="313.38" y="126.07" width="21.18" height="21.17"/><rect class="cls-4" x="313.38" y="104.89" width="21.18" height="21.18"/><rect class="cls-3" x="313.38" y="83.72" width="21.18" height="21.17"/><rect class="cls-3" x="313.38" y="62.54" width="21.18" height="21.18"/><rect class="cls-5" x="313.38" y="41.36" width="21.18" height="21.18"/><rect class="cls-5" x="313.38" y="20.19" width="21.18" height="21.17"/><rect class="cls-2" x="292.21" y="1079.01" width="21.17" height="21.18"/><rect class="cls-3" x="292.21" y="1057.83" width="21.17" height="21.18"/><rect class="cls-3" x="292.21" y="1036.66" width="21.17" height="21.17"/><rect class="cls-3" x="292.21" y="1015.48" width="21.17" height="21.18"/><rect class="cls-2" x="292.21" y="994.3" width="21.17" height="21.18"/><rect class="cls-2" x="292.21" y="973.13" width="21.17" height="21.17"/><rect class="cls-2" x="292.21" y="951.95" width="21.17" height="21.18"/><rect class="cls-3" x="292.21" y="930.77" width="21.17" height="21.18"/><rect class="cls-3" x="292.21" y="909.6" width="21.17" height="21.17"/><rect class="cls-2" x="292.21" y="888.42" width="21.17" height="21.18"/><rect class="cls-2" x="292.21" y="867.24" width="21.17" height="21.18"/><rect class="cls-1" x="292.21" y="846.07" width="21.17" height="21.17"/><rect class="cls-1" x="292.21" y="824.89" width="21.17" height="21.18"/><rect class="cls-1" x="292.21" y="803.72" width="21.17" height="21.17"/><rect class="cls-3" x="292.21" y="782.54" width="21.17" height="21.18"/><rect class="cls-2" x="292.21" y="761.36" width="21.17" height="21.18"/><rect class="cls-2" x="292.21" y="740.19" width="21.17" height="21.17"/><rect class="cls-1" x="292.21" y="719.01" width="21.17" height="21.18"/><rect class="cls-1" x="292.21" y="697.83" width="21.17" height="21.18"/><rect class="cls-3" x="292.21" y="676.66" width="21.17" height="21.17"/><rect class="cls-3" x="292.21" y="655.48" width="21.17" height="21.18"/><rect class="cls-3" x="292.21" y="634.3" width="21.17" height="21.18"/><rect class="cls-3" x="292.21" y="613.13" width="21.17" height="21.17"/><rect class="cls-3" x="292.21" y="591.95" width="21.17" height="21.18"/><rect class="cls-3" x="292.21" y="570.77" width="21.17" height="21.18"/><rect class="cls-3" x="292.21" y="549.6" width="21.17" height="21.17"/><rect class="cls-3" x="292.21" y="528.42" width="21.17" height="21.18"/><rect class="cls-3" x="292.21" y="507.24" width="21.17" height="21.18"/><rect class="cls-3" x="292.21" y="486.07" width="21.17" height="21.17"/><rect class="cls-3" x="292.21" y="464.89" width="21.17" height="21.18"/><rect class="cls-3" x="292.21" y="443.72" width="21.17" height="21.17"/><rect class="cls-3" x="292.21" y="422.54" width="21.17" height="21.18"/><rect class="cls-3" x="292.21" y="401.36" width="21.17" height="21.18"/><rect class="cls-3" x="292.21" y="380.19" width="21.17" height="21.17"/><rect class="cls-3" x="292.21" y="359.01" width="21.17" height="21.18"/><rect class="cls-3" x="292.21" y="337.83" width="21.17" height="21.18"/><rect class="cls-3" x="292.21" y="316.66" width="21.17" height="21.17"/><rect class="cls-3" x="292.21" y="295.48" width="21.17" height="21.18"/><rect class="cls-3" x="292.21" y="274.3" width="21.17" height="21.18"/><rect class="cls-3" x="292.21" y="253.13" width="21.17" height="21.17"/><rect class="cls-3" x="292.21" y="231.95" width="21.17" height="21.18"/><rect class="cls-3" x="292.21" y="210.77" width="21.17" height="21.18"/><rect class="cls-3" x="292.21" y="189.6" width="21.17" height="21.17"/><rect class="cls-3" x="292.21" y="168.42" width="21.17" height="21.18"/><rect class="cls-3" x="292.21" y="147.24" width="21.17" height="21.18"/><rect class="cls-3" x="292.21" y="126.07" width="21.17" height="21.17"/><rect class="cls-3" x="292.21" y="104.89" width="21.17" height="21.18"/><rect class="cls-3" x="292.21" y="83.72" width="21.17" height="21.17"/><rect class="cls-5" x="292.21" y="62.54" width="21.17" height="21.18"/><rect class="cls-5" x="292.21" y="41.36" width="21.17" height="21.18"/><rect class="cls-2" x="271.03" y="1079.01" width="21.18" height="21.18"/><rect class="cls-2" x="271.03" y="1057.83" width="21.18" height="21.18"/><rect class="cls-5" x="271.03" y="1036.66" width="21.18" height="21.17"/><rect class="cls-5" x="271.03" y="1015.48" width="21.18" height="21.18"/><rect class="cls-2" x="271.03" y="994.3" width="21.18" height="21.18"/><rect class="cls-1" x="271.03" y="973.13" width="21.18" height="21.17"/><rect class="cls-1" x="271.03" y="951.95" width="21.18" height="21.18"/><rect class="cls-1" x="271.03" y="930.77" width="21.18" height="21.18"/><rect class="cls-5" x="271.03" y="909.6" width="21.18" height="21.17"/><rect class="cls-2" x="271.03" y="888.42" width="21.18" height="21.18"/><rect class="cls-1" x="271.03" y="867.24" width="21.18" height="21.18"/><rect class="cls-1" x="271.03" y="846.07" width="21.18" height="21.17"/><rect class="cls-1" x="271.03" y="824.89" width="21.18" height="21.18"/><rect class="cls-1" x="271.03" y="803.72" width="21.18" height="21.17"/><rect class="cls-5" x="271.03" y="782.54" width="21.18" height="21.18"/><rect class="cls-2" x="271.03" y="761.36" width="21.18" height="21.18"/><rect class="cls-1" x="271.03" y="740.19" width="21.18" height="21.17"/><rect class="cls-1" x="271.03" y="719.01" width="21.18" height="21.18"/><rect class="cls-1" x="271.03" y="697.83" width="21.18" height="21.18"/><rect class="cls-1" x="271.03" y="676.66" width="21.18" height="21.17"/><rect class="cls-5" x="271.03" y="655.48" width="21.18" height="21.18"/><rect class="cls-5" x="271.03" y="634.3" width="21.18" height="21.18"/><rect class="cls-5" x="271.03" y="613.13" width="21.18" height="21.17"/><rect class="cls-5" x="271.03" y="591.95" width="21.18" height="21.18"/><rect class="cls-5" x="271.03" y="570.77" width="21.18" height="21.18"/><rect class="cls-5" x="271.03" y="549.6" width="21.18" height="21.17"/><rect class="cls-5" x="271.03" y="528.42" width="21.18" height="21.18"/><rect class="cls-5" x="271.03" y="507.24" width="21.18" height="21.18"/><rect class="cls-5" x="271.03" y="486.07" width="21.18" height="21.17"/><rect class="cls-5" x="271.03" y="464.89" width="21.18" height="21.18"/><rect class="cls-5" x="271.03" y="443.72" width="21.18" height="21.17"/><rect class="cls-5" x="271.03" y="422.54" width="21.18" height="21.18"/><rect class="cls-5" x="271.03" y="401.36" width="21.18" height="21.18"/><rect class="cls-5" x="271.03" y="380.19" width="21.18" height="21.17"/><rect class="cls-5" x="271.03" y="359.01" width="21.18" height="21.18"/><rect class="cls-5" x="271.03" y="337.83" width="21.18" height="21.18"/><rect class="cls-5" x="271.03" y="316.66" width="21.18" height="21.17"/><rect class="cls-5" x="271.03" y="295.48" width="21.18" height="21.18"/><rect class="cls-5" x="271.03" y="274.3" width="21.18" height="21.18"/><rect class="cls-5" x="271.03" y="253.13" width="21.18" height="21.17"/><rect class="cls-5" x="271.03" y="231.95" width="21.18" height="21.18"/><rect class="cls-5" x="271.03" y="210.77" width="21.18" height="21.18"/><rect class="cls-5" x="271.03" y="189.6" width="21.18" height="21.17"/><rect class="cls-5" x="271.03" y="168.42" width="21.18" height="21.18"/><rect class="cls-5" x="271.03" y="147.24" width="21.18" height="21.18"/><rect class="cls-5" x="271.03" y="126.07" width="21.18" height="21.17"/><rect class="cls-5" x="271.03" y="104.89" width="21.18" height="21.18"/><rect class="cls-5" x="271.03" y="83.72" width="21.18" height="21.17"/><rect class="cls-5" x="271.03" y="62.54" width="21.18" height="21.18"/><rect class="cls-1" x="249.85" y="1079.01" width="21.18" height="21.18"/><rect class="cls-1" x="249.85" y="1057.83" width="21.18" height="21.18"/><rect class="cls-1" x="249.85" y="994.3" width="21.18" height="21.18"/><rect class="cls-1" x="249.85" y="973.13" width="21.18" height="21.17"/><rect class="cls-1" x="249.85" y="951.95" width="21.18" height="21.18"/><rect class="cls-1" x="249.85" y="930.77" width="21.18" height="21.18"/><rect class="cls-2" x="249.85" y="888.42" width="21.18" height="21.18"/><rect class="cls-1" x="249.85" y="867.24" width="21.18" height="21.18"/><rect class="cls-1" x="249.85" y="846.07" width="21.18" height="21.17"/><rect class="cls-1" x="249.85" y="824.89" width="21.18" height="21.18"/><rect class="cls-1" x="249.85" y="803.72" width="21.18" height="21.17"/><rect class="cls-1" x="249.85" y="761.36" width="21.18" height="21.18"/><rect class="cls-1" x="249.85" y="740.19" width="21.18" height="21.17"/><rect class="cls-1" x="249.85" y="719.01" width="21.18" height="21.18"/><rect class="cls-1" x="249.85" y="697.83" width="21.18" height="21.18"/><rect class="cls-1" x="249.85" y="676.66" width="21.18" height="21.17"/><rect class="cls-1" x="228.68" y="1079.01" width="21.17" height="21.18"/><rect class="cls-1" x="228.68" y="1057.83" width="21.17" height="21.18"/><rect class="cls-1" x="228.68" y="994.3" width="21.17" height="21.18"/><rect class="cls-1" x="228.68" y="973.13" width="21.17" height="21.17"/><rect class="cls-1" x="228.68" y="951.95" width="21.17" height="21.18"/><rect class="cls-1" x="228.68" y="930.77" width="21.17" height="21.18"/><rect class="cls-1" x="228.68" y="888.42" width="21.17" height="21.18"/><rect class="cls-1" x="228.68" y="867.24" width="21.17" height="21.18"/><rect class="cls-1" x="228.68" y="846.07" width="21.17" height="21.17"/><rect class="cls-1" x="228.68" y="824.89" width="21.17" height="21.18"/><rect class="cls-1" x="228.68" y="803.72" width="21.17" height="21.17"/><rect class="cls-1" x="228.68" y="761.36" width="21.17" height="21.18"/><rect class="cls-1" x="228.68" y="740.19" width="21.17" height="21.17"/><rect class="cls-1" x="228.68" y="719.01" width="21.17" height="21.18"/><rect class="cls-1" x="228.68" y="697.83" width="21.17" height="21.18"/><rect class="cls-1" x="228.68" y="676.66" width="21.17" height="21.17"/><rect class="cls-1" x="207.5" y="1079.01" width="21.18" height="21.18"/><rect class="cls-1" x="207.5" y="994.3" width="21.18" height="21.18"/><rect class="cls-1" x="207.5" y="973.13" width="21.18" height="21.17"/><rect class="cls-1" x="207.5" y="951.95" width="21.18" height="21.18"/><rect class="cls-1" x="207.5" y="930.77" width="21.18" height="21.18"/><rect class="cls-1" x="207.5" y="888.42" width="21.18" height="21.18"/><rect class="cls-1" x="207.5" y="867.24" width="21.18" height="21.18"/><rect class="cls-1" x="207.5" y="846.07" width="21.18" height="21.17"/><rect class="cls-1" x="207.5" y="824.89" width="21.18" height="21.18"/><rect class="cls-1" x="207.5" y="803.72" width="21.18" height="21.17"/><rect class="cls-1" x="207.5" y="740.19" width="21.18" height="21.17"/><rect class="cls-1" x="207.5" y="719.01" width="21.18" height="21.18"/><rect class="cls-1" x="207.5" y="697.83" width="21.18" height="21.18"/><rect class="cls-1" x="186.32" y="994.3" width="21.18" height="21.18"/><rect class="cls-1" x="186.32" y="973.13" width="21.18" height="21.17"/><rect class="cls-1" x="186.32" y="951.95" width="21.18" height="21.18"/><rect class="cls-1" x="186.32" y="930.77" width="21.18" height="21.18"/><rect class="cls-1" x="186.32" y="888.42" width="21.18" height="21.18"/><rect class="cls-1" x="186.32" y="867.24" width="21.18" height="21.18"/><rect class="cls-1" x="186.32" y="846.07" width="21.18" height="21.17"/><rect class="cls-1" x="186.32" y="824.89" width="21.18" height="21.18"/><rect class="cls-1" x="165.15" y="973.13" width="21.17" height="21.17"/><rect class="cls-1" x="165.15" y="951.95" width="21.17" height="21.18"/><rect class="cls-1" x="165.15" y="867.24" width="21.17" height="21.18"/><rect class="cls-1" x="165.15" y="846.07" width="21.17" height="21.17"/><rect class="cls-1" x="165.15" y="824.89" width="21.17" height="21.18"/></g></g></svg>
